<svg width="21" height="21" viewBox="0 0 21 21" fill="none" xmlns="http://www.w3.org/2000/svg">
<path d="M8.3597 10.764L8.35567 10.7583L8.35564 10.7583L3.13012 3.39719C3.13003 3.39706 3.12994 3.39693 3.12984 3.3968C2.94831 3.144 2.92337 2.81075 3.06567 2.53388L8.3597 10.764ZM8.3597 10.764L8.35965 10.764L8.36281 10.7683C8.53354 10.9987 8.62589 11.2779 8.62651 11.565C8.62651 11.5651 8.62651 11.5652 8.62651 11.5652L8.62651 17.5666V17.567H8.77651M8.3597 10.764L12.6926 17.2079M8.77651 17.567C8.7754 17.7449 8.84519 17.9155 8.97052 18.0417C9.09584 18.1678 9.26621 18.2385 9.44388 18.2385C9.5343 18.2385 9.62361 18.2204 9.70705 18.1859M8.77651 17.567V11.5649V17.567ZM9.70705 18.1859L9.7605 18.326L9.76242 18.3253C9.76311 18.325 9.7638 18.3247 9.76448 18.3244L9.70705 18.1859ZM9.70705 18.1859L12.6437 17.0661M12.6437 17.0661L12.6874 17.2095C12.6892 17.209 12.6909 17.2085 12.6926 17.2079M12.6437 17.0661C12.9069 16.9858 13.0815 16.7375 13.0815 16.4385V11.5649M12.6437 17.0661L12.6971 17.2062L12.6926 17.2079M12.6926 17.2079L13.0815 11.5649M18.792 2.53386C18.6513 2.25999 18.3691 2.088 18.0611 2.08853M18.792 2.53386L18.0611 2.08853M18.792 2.53386C18.792 2.53387 18.792 2.53387 18.792 2.53388L18.6586 2.60243L18.792 2.53386ZM18.0611 2.08853H18.0612V2.23853L18.0609 2.08853C18.061 2.08853 18.061 2.08853 18.0611 2.08853ZM18.0611 2.08853H3.79648M18.0611 2.08853H3.79648M13.0815 11.5649C13.082 11.2459 13.1848 10.9353 13.3745 10.679L13.0815 11.5649ZM3.79648 2.08853C3.4886 2.088 3.2064 2.26001 3.06568 2.53386L3.79648 2.08853ZM9.25943 10.1099L4.35471 3.20073H17.503L12.5981 10.1099C12.2878 10.5315 12.12 11.0411 12.119 11.5647V11.5649V16.2365L9.73871 17.144V11.5649L9.73871 11.5647C9.7377 11.0411 9.56992 10.5316 9.25943 10.1099Z" fill="#616161" stroke="#616161" stroke-width="0.3"/>
</svg>
