<svg width="14" height="13" viewBox="0 0 14 13" fill="none" xmlns="http://www.w3.org/2000/svg">
<path d="M13.6666 4.94666C13.6245 4.82472 13.5479 4.71761 13.4462 4.63833C13.3444 4.55904 13.2218 4.51099 13.0933 4.49999L9.29995 3.94666L7.59994 0.49999C7.54535 0.387276 7.46012 0.292218 7.354 0.225706C7.24789 0.159193 7.12518 0.123917 6.99994 0.123917C6.87471 0.123917 6.752 0.159193 6.64589 0.225706C6.53977 0.292218 6.45454 0.387276 6.39995 0.49999L4.69995 3.93999L0.906611 4.49999C0.783226 4.51753 0.667227 4.5693 0.571778 4.64943C0.476328 4.72956 0.405251 4.83484 0.366611 4.95332C0.331241 5.06911 0.328067 5.19234 0.357429 5.30979C0.386792 5.42724 0.447583 5.53447 0.533278 5.61999L3.28661 8.28666L2.61994 12.0733C2.59303 12.1989 2.60298 12.3297 2.6486 12.4497C2.69422 12.5698 2.77357 12.6742 2.8771 12.7503C2.98063 12.8263 3.10393 12.8708 3.23216 12.8785C3.3604 12.8861 3.48812 12.8566 3.59994 12.7933L6.99994 11.0133L10.3999 12.7933C10.4935 12.8461 10.5992 12.8737 10.7066 12.8733C10.8478 12.8738 10.9856 12.8295 11.0999 12.7467C11.2034 12.6726 11.2834 12.5704 11.3307 12.4523C11.3779 12.3342 11.3904 12.205 11.3666 12.08L10.6999 8.29332L13.4533 5.62666C13.5495 5.54511 13.6207 5.43793 13.6584 5.31756C13.6962 5.19719 13.699 5.06857 13.6666 4.94666Z" fill="#F4BE55"/>
</svg>
