<svg width="20" height="13" viewBox="0 0 20 13" fill="none" xmlns="http://www.w3.org/2000/svg">
<path fill-rule="evenodd" clip-rule="evenodd" d="M18.0351 1.10113C18.3178 1.38383 18.5215 1.73565 18.6259 2.12156C19.2272 4.54197 19.0883 8.36463 18.6376 10.8784C18.5332 11.2643 18.3295 11.6162 18.0468 11.8989C17.7641 12.1816 17.4123 12.3853 17.0264 12.4897C15.6136 12.875 9.92745 12.875 9.92745 12.875C9.92745 12.875 4.24133 12.875 2.82855 12.4897C2.44264 12.3853 2.09081 12.1816 1.80812 11.8989C1.52542 11.6162 1.32172 11.2643 1.21729 10.8784C0.612481 8.46855 0.778278 4.64354 1.20561 2.13324C1.31004 1.74733 1.51374 1.3955 1.79644 1.11281C2.07914 0.83011 2.43096 0.626403 2.81688 0.521981C4.22965 0.136673 9.91578 0.125 9.91578 0.125C9.91578 0.125 15.6019 0.125 17.0147 0.510301C17.4006 0.61473 17.7524 0.818437 18.0351 1.10113ZM12.8231 6.5L8.10602 9.23213V3.76785L12.8231 6.5Z" fill="white"/>
</svg>
