<svg width="18" height="18" viewBox="0 0 18 18" fill="none" xmlns="http://www.w3.org/2000/svg">
<path fill-rule="evenodd" clip-rule="evenodd" d="M3.07901 16.3806C3.31661 16.8243 3.78013 17.1015 4.28415 17.1006C4.49655 17.1015 4.70716 17.052 4.89617 16.9566L8.99311 14.8145C9.00391 14.8082 9.01651 14.8046 9.02911 14.8055L13.0981 16.9296C13.2953 17.0358 13.5158 17.0907 13.739 17.0898C13.8101 17.0898 13.8821 17.0835 13.9523 17.0736C14.6849 16.9539 15.1853 16.2681 15.0773 15.5345L14.2853 11.0254C14.279 11.0164 14.279 11.0191 14.279 11.0164C14.279 11.0137 14.2853 11.0074 14.2853 11.0074L17.5884 7.81227C18.0762 7.34155 18.1383 6.58282 17.7324 6.03921C17.5119 5.7548 17.1888 5.56759 16.8324 5.51719L12.2764 4.86017C12.2683 4.86017 12.2593 4.85117 12.2503 4.84217L10.2153 0.756026C9.98584 0.29431 9.51602 0.00270009 9.00031 0C8.8509 0 8.7015 0.0234008 8.55929 0.0720025C8.21818 0.188106 7.93647 0.432915 7.77627 0.756026L5.744 4.83046C5.744 4.84937 5.7251 4.85747 5.7071 4.85747L1.16194 5.51449C0.88383 5.56129 0.624621 5.68549 0.414914 5.8745C0.149405 6.13461 0 6.49192 0 6.86453C0.000900031 7.21825 0.143105 7.55666 0.396014 7.80327L3.72613 11.0074C3.73333 11.0146 3.73603 11.0245 3.73603 11.0344L2.9341 15.5255C2.8864 15.8189 2.9377 16.1196 3.07901 16.3806ZM8.97436 1.32031L8.98336 1.31401H9.00047L9.00856 1.32211C9.01667 1.32211 9.02387 1.32391 9.03017 1.32931C9.03557 1.33471 9.03827 1.34191 9.03737 1.35001L11.0714 5.41725C11.2667 5.81776 11.6466 6.09677 12.0876 6.16428L16.6435 6.8267C16.6516 6.8267 16.6597 6.8285 16.6669 6.8321C16.6714 6.833 16.675 6.833 16.6795 6.8321L16.6885 6.8402L16.6795 6.86L13.3764 10.0632C13.0479 10.371 12.9012 10.8264 12.9885 11.2683L13.7814 15.7514L13.7634 15.7685H13.7445C13.7409 15.7703 13.7373 15.7703 13.7337 15.7685C13.7247 15.7676 13.7157 15.764 13.7076 15.7595H13.6995L9.64939 13.6444C9.45498 13.5436 9.23897 13.4896 9.01937 13.4905C8.79346 13.4905 8.57025 13.5472 8.37044 13.6534L4.2942 15.791C4.2897 15.7919 4.2843 15.7919 4.2798 15.791C4.2609 15.791 4.2447 15.7784 4.2402 15.7604V15.7424L5.03223 11.2602C5.10603 10.8219 4.96203 10.3746 4.64522 10.0632L1.3151 6.8681C1.3142 6.8546 1.316 6.8429 1.3232 6.8312L1.3781 6.8132L5.90526 6.16428C6.34627 6.09587 6.72519 5.81776 6.92139 5.41725L8.95636 1.34011C8.96086 1.33201 8.96626 1.32481 8.97436 1.32031Z" fill="#616161"/>
</svg>
