<svg width="18" height="18" viewBox="0 0 18 18" fill="none" xmlns="http://www.w3.org/2000/svg">
<path d="M8.40369 13.5341C8.48204 13.6125 8.57506 13.6746 8.67743 13.717C8.7798 13.7594 8.88952 13.7812 9.00033 13.7812C9.11114 13.7812 9.22086 13.7594 9.32323 13.717C9.4256 13.6746 9.51862 13.6125 9.59697 13.5341L12.7789 10.3521C12.9372 10.1939 13.026 9.9793 13.026 9.75553C13.026 9.53175 12.9372 9.31714 12.7789 9.15891C12.6207 9.00067 12.4061 8.91178 12.1823 8.91178C11.9585 8.91178 11.7439 9.00067 11.5857 9.15891L9.84408 10.9005V1.6875C9.84408 1.46372 9.75518 1.24911 9.59695 1.09088C9.43872 0.932645 9.22411 0.84375 9.00033 0.84375C8.77655 0.84375 8.56194 0.932645 8.40371 1.09088C8.24547 1.24911 8.15658 1.46372 8.15658 1.6875V10.9005L6.41497 9.15891C6.25674 9.00067 6.04213 8.91178 5.81835 8.91178C5.59458 8.91178 5.37997 9.00067 5.22174 9.15891C5.0635 9.31714 4.97461 9.53175 4.97461 9.75553C4.97461 9.9793 5.0635 10.1939 5.22174 10.3521L8.40369 13.5341Z" fill="#7DA152"/>
<path d="M16.3125 8.15625C16.0887 8.15625 15.8741 8.24514 15.7159 8.40338C15.5576 8.56161 15.4688 8.77622 15.4688 9V15.4688H2.53125V9C2.53125 8.77622 2.44236 8.56161 2.28412 8.40338C2.12589 8.24514 1.91128 8.15625 1.6875 8.15625C1.46372 8.15625 1.24911 8.24514 1.09088 8.40338C0.932645 8.56161 0.84375 8.77622 0.84375 9V15.75C0.84375 16.123 0.991908 16.4806 1.25563 16.7444C1.51935 17.0081 1.87704 17.1562 2.25 17.1562H15.75C16.123 17.1562 16.4806 17.0081 16.7444 16.7444C17.0081 16.4806 17.1562 16.123 17.1562 15.75V9C17.1562 8.77622 17.0674 8.56161 16.9091 8.40338C16.7509 8.24514 16.5363 8.15625 16.3125 8.15625Z" fill="#7DA152"/>
</svg>
