<svg width="20" height="20" viewBox="0 0 20 20" fill="none" xmlns="http://www.w3.org/2000/svg">
<path d="M10 0C4.47254 0 0 4.47293 0 10C0 15.5275 4.47293 20 10 20C15.5275 20 20 15.5271 20 10C20 4.47254 15.527 0 10 0ZM10 18.4375C5.33621 18.4375 1.5625 14.6635 1.5625 10C1.5625 5.33621 5.33652 1.5625 10 1.5625C14.6638 1.5625 18.4375 5.33652 18.4375 10C18.4375 14.6638 14.6634 18.4375 10 18.4375Z" fill="#ACACAC"/>
<path d="M10 8.37228C9.56852 8.37228 9.21875 8.72205 9.21875 9.15354V14.1845C9.21875 14.616 9.56852 14.9658 10 14.9658C10.4315 14.9658 10.7812 14.616 10.7812 14.1845V9.15354C10.7812 8.72205 10.4315 8.37228 10 8.37228Z" fill="#ACACAC"/>
<path d="M10 7.41568C10.5825 7.41568 11.0547 6.94348 11.0547 6.36099C11.0547 5.7785 10.5825 5.3063 10 5.3063C9.41751 5.3063 8.94531 5.7785 8.94531 6.36099C8.94531 6.94348 9.41751 7.41568 10 7.41568Z" fill="#ACACAC"/>
</svg>
