<svg width="19" height="16" viewBox="0 0 19 16" fill="none" xmlns="http://www.w3.org/2000/svg">
<path d="M18.1667 6.05836C18.1117 5.90594 18.0116 5.77205 17.8787 5.67295C17.7457 5.57384 17.5855 5.51378 17.4175 5.50003L12.4603 4.80836L10.2387 0.500029C10.1674 0.359137 10.056 0.240314 9.91731 0.157174C9.77863 0.0740336 9.61828 0.0299377 9.45462 0.0299377C9.29095 0.0299377 9.1306 0.0740336 8.99193 0.157174C8.85325 0.240314 8.74187 0.359137 8.67053 0.500029L6.44894 4.80003L1.49174 5.50003C1.3305 5.52195 1.17891 5.58667 1.05417 5.68683C0.929439 5.78699 0.836553 5.91859 0.786058 6.0667C0.739835 6.21143 0.735688 6.36546 0.774059 6.51227C0.812431 6.65909 0.891873 6.79313 1.00386 6.90003L4.60197 10.2334L3.73075 14.9667C3.69558 15.1237 3.70859 15.2871 3.7682 15.4372C3.82782 15.5873 3.93151 15.7178 4.06681 15.8129C4.2021 15.9079 4.36323 15.9636 4.53081 15.9732C4.6984 15.9827 4.8653 15.9457 5.01144 15.8667L9.45462 13.6417L13.8978 15.8667C14.0201 15.9327 14.1582 15.9671 14.2986 15.9667C14.4831 15.9673 14.6631 15.9119 14.8126 15.8084C14.9477 15.7157 15.0524 15.5881 15.1141 15.4404C15.1759 15.2927 15.1922 15.1313 15.1611 14.975L14.2898 10.2417L17.888 6.90836C18.0137 6.80643 18.1067 6.67245 18.1561 6.52199C18.2054 6.37152 18.2091 6.21076 18.1667 6.05836Z" fill="#F4BE55"/>
</svg>
