<svg width="19" height="16" viewBox="0 0 19 16" fill="none" xmlns="http://www.w3.org/2000/svg">
<path d="M18.2576 6.05836C18.2025 5.90594 18.1025 5.77205 17.9695 5.67295C17.8365 5.57384 17.6763 5.51378 17.5083 5.50003L12.5511 4.80836L10.3295 0.500029C10.2582 0.359137 10.1468 0.240314 10.0081 0.157174C9.86945 0.0740336 9.7091 0.0299377 9.54544 0.0299377C9.38177 0.0299377 9.22142 0.0740336 9.08275 0.157174C8.94407 0.240314 8.83269 0.359137 8.76135 0.500029L6.53976 4.80003L1.58256 5.50003C1.42132 5.52195 1.26973 5.58667 1.14499 5.68683C1.02026 5.78699 0.927373 5.91859 0.876878 6.0667C0.830656 6.21143 0.826508 6.36546 0.864879 6.51227C0.903251 6.65909 0.982693 6.79313 1.09468 6.90003L4.69279 10.2334L3.82157 14.9667C3.7864 15.1237 3.79941 15.2871 3.85902 15.4372C3.91864 15.5873 4.02233 15.7178 4.15763 15.8129C4.29292 15.9079 4.45405 15.9636 4.62163 15.9732C4.78922 15.9827 4.95612 15.9457 5.10226 15.8667L9.54544 13.6417L13.9886 15.8667C14.1109 15.9327 14.249 15.9671 14.3894 15.9667C14.5739 15.9673 14.7539 15.9119 14.9034 15.8084C15.0386 15.7157 15.1432 15.5881 15.2049 15.4404C15.2667 15.2927 15.283 15.1313 15.2519 14.975L14.3807 10.2417L17.9788 6.90836C18.1046 6.80643 18.1975 6.67245 18.2469 6.52199C18.2962 6.37152 18.2999 6.21076 18.2576 6.05836Z" fill="#E8E8E8"/>
</svg>
