<svg width="17" height="17" viewBox="0 0 17 17" fill="none" xmlns="http://www.w3.org/2000/svg">
<path d="M10.3946 8.51265L16.6247 2.28238C17.0301 1.87713 17.0301 1.22189 16.6247 0.816635C16.2194 0.411382 15.5642 0.411382 15.1589 0.816635L8.92863 7.04691L2.69854 0.816635C2.2931 0.411382 1.63805 0.411382 1.23279 0.816635C0.82735 1.22189 0.82735 1.87713 1.23279 2.28238L7.46289 8.51265L1.23279 14.7429C0.82735 15.1482 0.82735 15.8034 1.23279 16.2087C1.43476 16.4108 1.70031 16.5124 1.96567 16.5124C2.23103 16.5124 2.49639 16.4108 2.69854 16.2087L8.92863 9.9784L15.1589 16.2087C15.3611 16.4108 15.6264 16.5124 15.8918 16.5124C16.1571 16.5124 16.4225 16.4108 16.6247 16.2087C17.0301 15.8034 17.0301 15.1482 16.6247 14.7429L10.3946 8.51265Z" fill="black"/>
</svg>
