<svg width="22" height="22" viewBox="0 0 22 22" fill="none" xmlns="http://www.w3.org/2000/svg">
<path d="M8.8959 12.2439H1.3709C1.08579 12.2439 0.81236 12.3572 0.610759 12.5588C0.409157 12.7604 0.295898 13.0338 0.295898 13.3189V20.8439C0.295898 21.1291 0.409157 21.4025 0.610759 21.6041C0.81236 21.8057 1.08579 21.9189 1.3709 21.9189H8.8959C9.18101 21.9189 9.45444 21.8057 9.65604 21.6041C9.85764 21.4025 9.9709 21.1291 9.9709 20.8439V13.3189C9.9709 13.0338 9.85764 12.7604 9.65604 12.5588C9.45444 12.3572 9.18101 12.2439 8.8959 12.2439ZM7.8209 19.7689H2.4459V14.3939H7.8209V19.7689ZM20.7209 0.418945H13.1959C12.9108 0.418945 12.6374 0.532204 12.4358 0.733805C12.2342 0.935407 12.1209 1.20884 12.1209 1.49395V9.01895C12.1209 9.30405 12.2342 9.57748 12.4358 9.77909C12.6374 9.98069 12.9108 10.0939 13.1959 10.0939H20.7209C21.006 10.0939 21.2794 9.98069 21.481 9.77909C21.6826 9.57748 21.7959 9.30405 21.7959 9.01895V1.49395C21.7959 1.20884 21.6826 0.935407 21.481 0.733805C21.2794 0.532204 21.006 0.418945 20.7209 0.418945ZM19.6459 7.94395H14.2709V2.56895H19.6459V7.94395ZM20.7209 12.2439H13.1959C12.9108 12.2439 12.6374 12.3572 12.4358 12.5588C12.2342 12.7604 12.1209 13.0338 12.1209 13.3189V20.8439C12.1209 21.1291 12.2342 21.4025 12.4358 21.6041C12.6374 21.8057 12.9108 21.9189 13.1959 21.9189H20.7209C21.006 21.9189 21.2794 21.8057 21.481 21.6041C21.6826 21.4025 21.7959 21.1291 21.7959 20.8439V13.3189C21.7959 13.0338 21.6826 12.7604 21.481 12.5588C21.2794 12.3572 21.006 12.2439 20.7209 12.2439ZM19.6459 19.7689H14.2709V14.3939H19.6459V19.7689ZM8.8959 0.418945H1.3709C1.08579 0.418945 0.81236 0.532204 0.610759 0.733805C0.409157 0.935407 0.295898 1.20884 0.295898 1.49395V9.01895C0.295898 9.30405 0.409157 9.57748 0.610759 9.77909C0.81236 9.98069 1.08579 10.0939 1.3709 10.0939H8.8959C9.18101 10.0939 9.45444 9.98069 9.65604 9.77909C9.85764 9.57748 9.9709 9.30405 9.9709 9.01895V1.49395C9.9709 1.20884 9.85764 0.935407 9.65604 0.733805C9.45444 0.532204 9.18101 0.418945 8.8959 0.418945ZM7.8209 7.94395H2.4459V2.56895H7.8209V7.94395Z" fill="black"/>
</svg>
