<svg width="14" height="14" viewBox="0 0 14 14" fill="none" xmlns="http://www.w3.org/2000/svg">
<path d="M5.34175 12.1167V10.3277C5.34174 9.87273 5.71269 9.503 6.1723 9.49995H7.85584C8.31764 9.49995 8.692 9.87057 8.692 10.3277V10.3277V12.1222C8.6919 12.5086 9.00336 12.8243 9.39348 12.8334H10.5158C11.6347 12.8334 12.5417 11.9354 12.5417 10.8278V10.8278V5.73876C12.5357 5.303 12.3291 4.89381 11.9805 4.62762L8.14204 1.56645C7.46959 1.03343 6.51366 1.03343 5.8412 1.56645L2.01956 4.63318C1.66969 4.89828 1.46268 5.30816 1.45837 5.74431V10.8278C1.45837 11.9354 2.36538 12.8334 3.48424 12.8334H4.6066C5.00641 12.8334 5.33053 12.5125 5.33053 12.1167V12.1167" stroke="#ACACAC" stroke-width="1.3" stroke-linecap="round" stroke-linejoin="round"/>
</svg>
