<svg width="6" height="12" viewBox="0 0 6 12" fill="none" xmlns="http://www.w3.org/2000/svg">
<path d="M2.53133 0.46865L2.53133 10.3958L0.894838 8.75132C0.712213 8.56783 0.415425 8.56713 0.231933 8.74975C0.0484181 8.93238 0.0477386 9.22919 0.23034 9.41268L2.66783 11.862C2.66797 11.8622 2.66814 11.8623 2.66828 11.8624C2.8509 12.0454 3.14865 12.046 3.33189 11.8625C3.33203 11.8623 3.33219 11.8622 3.33233 11.862L5.76983 9.41273C5.9524 9.22926 5.95177 8.93245 5.76823 8.7498C5.58474 8.56717 5.28795 8.56788 5.10533 8.75137L3.46883 10.3958L3.46883 0.46865C3.46883 0.20976 3.25897 -0.000100098 3.00008 -0.000100101C2.74119 -0.000100104 2.53133 0.20976 2.53133 0.46865Z" fill="#ACACAC"/>
</svg>
