<svg width="6" height="12" viewBox="0 0 6 12" fill="none" xmlns="http://www.w3.org/2000/svg">
<path d="M3.46867 11.5314L3.46867 1.60421L5.10516 3.24868C5.28779 3.43217 5.58457 3.43287 5.76807 3.25025C5.95158 3.06762 5.95226 2.77081 5.76966 2.58732L3.33217 0.138007C3.33203 0.137843 3.33186 0.137725 3.33172 0.137585C3.1491 -0.0454387 2.85135 -0.0460247 2.66811 0.137538C2.66797 0.137702 2.66781 0.137819 2.66767 0.13796L0.230175 2.58727C0.0475968 2.77074 0.0482296 3.06755 0.231768 3.2502C0.41526 3.43283 0.712048 3.43212 0.894673 3.24863L2.53117 1.60421L2.53117 11.5313C2.53117 11.7902 2.74103 12.0001 2.99992 12.0001C3.25881 12.0001 3.46867 11.7902 3.46867 11.5314Z" fill="#ACACAC"/>
</svg>
