<svg width="24" height="24" viewBox="0 0 24 24" fill="none" xmlns="http://www.w3.org/2000/svg">
<path d="M0.9 12C0.9 18.1209 5.87913 23.1 12 23.1C18.1209 23.1 23.1 18.1209 23.1 12C23.1 5.87913 18.1209 0.9 12 0.9C5.87913 0.9 0.9 5.87913 0.9 12ZM2.475 12C2.475 6.74775 6.74775 2.475 12 2.475C17.2523 2.475 21.525 6.74775 21.525 12C21.525 17.2523 17.2523 21.525 12 21.525C6.74775 21.525 2.475 17.2523 2.475 12Z" fill="#62b25a" stroke="#62b25a" stroke-width="0.2"/>
<path d="M12.2289 18.5165C12.7903 18.5165 13.2455 18.0613 13.2455 17.4999C13.2455 16.9384 12.7903 16.4833 12.2289 16.4833C11.6674 16.4833 11.2123 16.9384 11.2123 17.4999C11.2123 18.0613 11.6674 18.5165 12.2289 18.5165Z" fill="#62b25a" stroke="#62b25a" stroke-width="0.2"/>
<path d="M12.8853 11.7848L12.8852 11.7848C12.0221 12.0894 11.4416 12.9092 11.4416 13.8242V14.7501C11.4416 15.1848 11.7944 15.5376 12.2291 15.5376C12.6639 15.5376 13.0166 15.1848 13.0166 14.7501V13.8251C13.0166 13.5758 13.1743 13.3526 13.4089 13.2706L13.4092 13.2705C14.9873 12.7132 16.225 11.0545 16.225 9.4792C16.225 7.27622 14.433 5.48331 12.2291 5.48331C10.0253 5.48331 8.23325 7.27622 8.23325 9.4792C8.23325 9.91393 8.58602 10.2667 9.02075 10.2667C9.45548 10.2667 9.80825 9.91393 9.80825 9.4792C9.80825 8.14382 10.8938 7.05831 12.2291 7.05831C13.5645 7.05831 14.65 8.14382 14.65 9.4792C14.65 9.87646 14.4761 10.3599 14.1639 10.7936C13.8525 11.2262 13.4102 11.5998 12.8853 11.7848Z" fill="#62b25a" stroke="#62b25a" stroke-width="0.2"/>
</svg>
