<svg width="18" height="19" viewBox="0 0 18 19" fill="none" xmlns="http://www.w3.org/2000/svg">
<path d="M8.40369 14.0343C8.48204 14.1127 8.57506 14.1749 8.67743 14.2173C8.7798 14.2597 8.88952 14.2815 9.00033 14.2815C9.11114 14.2815 9.22086 14.2597 9.32323 14.2173C9.4256 14.1749 9.51862 14.1127 9.59697 14.0343L12.7789 10.8524C12.9372 10.6942 13.026 10.4795 13.026 10.2558C13.026 10.032 12.9372 9.81738 12.7789 9.65915C12.6207 9.50092 12.4061 9.41202 12.1823 9.41202C11.9585 9.41202 11.7439 9.50092 11.5857 9.65915L9.84408 11.4008V2.18774C9.84408 1.96397 9.75518 1.74936 9.59695 1.59112C9.43872 1.43289 9.22411 1.34399 9.00033 1.34399C8.77655 1.34399 8.56194 1.43289 8.40371 1.59112C8.24547 1.74936 8.15658 1.96397 8.15658 2.18774V11.4008L6.41497 9.65915C6.25674 9.50092 6.04213 9.41202 5.81835 9.41202C5.59458 9.41202 5.37997 9.50092 5.22174 9.65915C5.0635 9.81738 4.97461 10.032 4.97461 10.2558C4.97461 10.4795 5.0635 10.6942 5.22174 10.8524L8.40369 14.0343Z" fill="#7DA152"/>
<path d="M16.3125 8.65649C16.0887 8.65649 15.8741 8.74539 15.7159 8.90362C15.5576 9.06186 15.4688 9.27647 15.4688 9.50024V15.969H2.53125V9.50024C2.53125 9.27647 2.44236 9.06186 2.28412 8.90362C2.12589 8.74539 1.91128 8.65649 1.6875 8.65649C1.46372 8.65649 1.24911 8.74539 1.09088 8.90362C0.932645 9.06186 0.84375 9.27647 0.84375 9.50024V16.2502C0.84375 16.6232 0.991908 16.9809 1.25563 17.2446C1.51935 17.5083 1.87704 17.6565 2.25 17.6565H15.75C16.123 17.6565 16.4806 17.5083 16.7444 17.2446C17.0081 16.9809 17.1562 16.6232 17.1562 16.2502V9.50024C17.1562 9.27647 17.0674 9.06186 16.9091 8.90362C16.7509 8.74539 16.5363 8.65649 16.3125 8.65649Z" fill="#7DA152"/>
</svg>
