<svg width="17" height="17" viewBox="0 0 17 17" fill="none" xmlns="http://www.w3.org/2000/svg">
<rect x="0.03125" y="0.500031" width="16" height="16" rx="4" fill="white"/>
<path d="M8.0348 4.13919C5.62412 4.13919 3.66992 6.09339 3.66992 8.50402C3.66992 10.9147 5.62412 12.8689 8.0348 12.8689C10.4454 12.8689 12.3996 10.9147 12.3996 8.50402C12.3996 6.09339 10.4454 4.13919 8.0348 4.13919ZM8.0348 11.3374C6.46997 11.3374 5.20145 10.0689 5.20145 8.50402C5.20145 6.93923 6.46997 5.67072 8.0348 5.67072C9.5996 5.67072 10.8681 6.93923 10.8681 8.50402C10.8681 10.0689 9.5996 11.3374 8.0348 11.3374Z" fill="#62B25A"/>
<path d="M13.5927 3.9639C13.5927 4.5272 13.1361 4.98388 12.5727 4.98388C12.0094 4.98388 11.5527 4.5272 11.5527 3.9639C11.5527 3.40056 12.0094 2.94388 12.5727 2.94388C13.1361 2.94388 13.5927 3.40056 13.5927 3.9639Z" fill="#62B25A"/>
</svg>
