<svg width="16" height="17" viewBox="0 0 16 17" fill="none" xmlns="http://www.w3.org/2000/svg">
<path fill-rule="evenodd" clip-rule="evenodd" d="M0.831396 15.8105L3.77931 15.0372L4.06372 15.206C5.25958 15.9157 6.63039 16.2912 8.02803 16.2917H8.03119C12.3242 16.2917 15.8182 12.7976 15.8199 8.50286C15.8207 6.42165 15.0113 4.46478 13.5408 2.99253C12.0703 1.52028 10.1146 0.709095 8.03426 0.708374C3.73798 0.708374 0.243893 4.20214 0.242188 8.49655C0.241585 9.96828 0.653372 11.4016 1.43305 12.6416L1.61824 12.9363L0.831396 15.8105ZM12.4316 10.5207C12.5949 10.5997 12.7052 10.653 12.7523 10.7316C12.8108 10.8292 12.8108 11.298 12.6157 11.845C12.4205 12.392 11.4851 12.8912 11.0352 12.9584C10.6318 13.0187 10.1213 13.0438 9.56043 12.8656C9.22034 12.7577 8.78423 12.6136 8.22559 12.3723C6.03047 11.4245 4.54703 9.29697 4.26667 8.89488C4.24703 8.86671 4.23329 8.84701 4.22563 8.83677L4.22374 8.83425C4.09982 8.66892 3.26953 7.56111 3.26953 6.41458C3.26953 5.33602 3.79934 4.7707 4.0432 4.51048C4.05991 4.49265 4.07528 4.47625 4.08904 4.46122C4.30366 4.2268 4.55735 4.16819 4.71344 4.16819C4.86952 4.16819 5.02578 4.16964 5.16221 4.17649C5.17904 4.17733 5.19655 4.17723 5.21465 4.17713C5.3511 4.17633 5.52122 4.17533 5.68903 4.57843C5.7536 4.73357 5.84807 4.96356 5.9477 5.20613C6.14918 5.69664 6.37179 6.23859 6.41096 6.31702C6.46951 6.43423 6.50852 6.57092 6.43048 6.72726C6.41876 6.7507 6.40793 6.77282 6.39757 6.79396C6.33895 6.91363 6.29583 7.00167 6.19634 7.11784C6.15721 7.16352 6.11677 7.21277 6.07634 7.26201C5.99579 7.36011 5.91524 7.4582 5.8451 7.52807C5.72788 7.64483 5.60586 7.77151 5.74244 8.00593C5.87903 8.24035 6.34895 9.00709 7.04504 9.62799C7.7933 10.2954 8.44363 10.5775 8.77327 10.7205C8.83764 10.7484 8.88978 10.771 8.92804 10.7902C9.1621 10.9074 9.29869 10.8878 9.43529 10.7316C9.57189 10.5753 10.0206 10.0478 10.1767 9.81345C10.3328 9.57912 10.4889 9.61815 10.7035 9.69626C10.9182 9.77447 12.0694 10.3409 12.3035 10.4581C12.3492 10.4809 12.392 10.5016 12.4316 10.5207Z" fill="white"/>
</svg>
