<svg xmlns="http://www.w3.org/2000/svg" fill="none" viewBox="0 0 24 24"><path fill="#ACACAC" stroke="#ACACAC" stroke-width=".2" d="M.9 12c0 6.12 4.98 11.1 11.1 11.1 6.12 0 11.1-4.98 11.1-11.1C23.1 5.88 18.12.9 12 .9 5.88.9.9 5.88.9 12zm1.575 0c0-5.252 4.273-9.525 9.525-9.525 5.252 0 9.525 4.273 9.525 9.525 0 5.252-4.273 9.525-9.525 9.525-5.252 0-9.525-4.273-9.525-9.525z"/><path fill="#ACACAC" stroke="#ACACAC" stroke-width=".2" d="M12.229 18.517a1.017 1.017 0 1 0 0-2.034 1.017 1.017 0 0 0 0 2.034zM12.885 11.785a2.167 2.167 0 0 0-1.443 2.04v.925a.788.788 0 0 0 1.575 0v-.925c0-.25.157-.472.392-.554 1.578-.558 2.816-2.216 2.816-3.792a4 4 0 0 0-3.996-3.996A4 4 0 0 0 8.233 9.48a.788.788 0 0 0 1.575 0 2.423 2.423 0 0 1 2.421-2.42 2.423 2.423 0 0 1 2.421 2.42c0 .397-.174.88-.486 1.315-.312.432-.754.806-1.279.99z"/></svg>