<svg width="20" height="19" viewBox="0 0 20 19" fill="none" xmlns="http://www.w3.org/2000/svg">
<path d="M15.75 4.83369V5.08369H16H17C17.7293 5.08369 18.4288 5.37343 18.9445 5.88915C19.4603 6.40488 19.75 7.10435 19.75 7.83369V15.8337C19.75 16.563 19.4603 17.2625 18.9445 17.7782C18.4288 18.294 17.7293 18.5837 17 18.5837H3C2.27065 18.5837 1.57118 18.294 1.05546 17.7782C0.539731 17.2625 0.25 16.563 0.25 15.8337V3.83369C0.25 3.10435 0.539731 2.40488 1.05546 1.88915C1.57118 1.37343 2.27065 1.08369 3 1.08369H13C13.7293 1.08369 14.4288 1.37343 14.9445 1.88915C15.4603 2.40488 15.75 3.10435 15.75 3.83369V4.83369ZM14 5.08369H14.25V4.83369V3.83369C14.25 3.50217 14.1183 3.18423 13.8839 2.94981C13.6495 2.71539 13.3315 2.58369 13 2.58369H3C2.66848 2.58369 2.35054 2.71539 2.11612 2.94981C1.8817 3.18423 1.75 3.50217 1.75 3.83369C1.75 4.16522 1.8817 4.48316 2.11612 4.71758C2.35054 4.952 2.66848 5.08369 3 5.08369H14ZM18 13.0837H18.25V12.8337V10.8337V10.5837H18H17C16.6685 10.5837 16.3505 10.7154 16.1161 10.9498C15.8817 11.1842 15.75 11.5022 15.75 11.8337C15.75 12.1652 15.8817 12.4832 16.1161 12.7176C16.3505 12.952 16.6685 13.0837 17 13.0837H18ZM18 9.08369H18.25V8.83369V7.83369C18.25 7.50217 18.1183 7.18423 17.8839 6.94981C17.6495 6.71539 17.3315 6.58369 17 6.58369L3 6.58369L2.99963 6.58369C2.68744 6.58416 2.37746 6.53146 2.08296 6.42786L1.75 6.31073V6.66369V15.8337C1.75 16.1652 1.8817 16.4832 2.11612 16.7176C2.35054 16.952 2.66848 17.0837 3 17.0837H17C17.3315 17.0837 17.6495 16.952 17.8839 16.7176C18.1183 16.4832 18.25 16.1652 18.25 15.8337V14.8337V14.5837H18H17C16.2707 14.5837 15.5712 14.294 15.0555 13.7782C14.5397 13.2625 14.25 12.563 14.25 11.8337C14.25 11.1043 14.5397 10.4049 15.0555 9.88915C15.5712 9.37343 16.2707 9.08369 17 9.08369H18Z" fill="#616161" stroke="white" stroke-width="0.5"/>
</svg>
