<svg width="148" height="34" viewBox="0 0 148 34" fill="none" xmlns="http://www.w3.org/2000/svg">
<g clip-path="url(#clip0)">
<path d="M11.1945 28.5118L11.6015 28.4619C14.8882 27.8092 17.264 26.7394 18.8826 25.4009C20.2988 24.2296 21.159 22.8297 21.587 21.2709C22.0114 19.7495 21.9964 18.1438 21.7065 16.4902C21.3283 14.3933 20.487 12.2662 19.4135 10.2278C19.3968 10.2072 19.3802 10.1866 19.4004 10.1698C17.7122 6.95307 15.5324 4.00514 13.9316 2.02424L13.8982 1.98297L13.8482 1.92107C13.8315 1.90043 13.8148 1.8798 13.7946 1.89653C13.7779 1.8759 13.7613 1.85526 13.741 1.872C13.7327 1.86168 13.7235 1.8607 13.7142 1.85973C13.705 1.85875 13.6958 1.85778 13.6874 1.84746C13.6791 1.83714 13.6699 1.83617 13.6607 1.83519C13.6514 1.83422 13.6422 1.83324 13.6339 1.82292C13.6236 1.81017 13.6119 1.81169 13.5958 1.81379C13.5858 1.81509 13.5741 1.81661 13.56 1.81512L13.4862 1.80732C13.465 1.80507 13.456 1.80412 13.4483 1.8069C13.4426 1.80895 13.4377 1.81304 13.4291 1.82015L13.3553 1.81234C13.3452 1.82071 13.3359 1.81973 13.3267 1.81876C13.3175 1.81778 13.3083 1.81681 13.2981 1.82517C13.288 1.83354 13.2788 1.83256 13.2696 1.83159C13.2603 1.83061 13.2511 1.82964 13.241 1.838C13.2208 1.85473 13.2208 1.85473 13.1839 1.85083C13.1737 1.8592 13.1595 1.86241 13.1452 1.86561C13.1309 1.86882 13.1166 1.87203 13.1065 1.88039L13.066 1.91386L13.0053 1.96406C11.0464 3.54972 8.31752 5.97867 6.07334 8.79855L4.98815 10.2124C3.28668 12.6179 2.0341 15.2029 1.84226 17.8057C1.67643 19.9395 2.23918 22.056 3.9007 23.9867C5.24183 25.5627 7.3786 27.0544 10.353 28.3124L10.7738 28.4121L11.1945 28.5118ZM20.0381 15.2193L12.1883 22.2964L12.6934 16.9904L18.6271 11.6355C19.205 12.81 19.6852 14.0308 20.0381 15.2193ZM13.3131 3.43081C14.7436 5.24273 16.5398 7.71607 17.9993 10.3991L12.8819 15.01L13.4545 8.99394C13.4901 8.62027 13.2233 8.29012 12.8542 8.2511C12.4852 8.21208 12.1615 8.4798 12.1259 8.85346L11.5532 14.8695L7.40689 9.27923C9.34293 6.95517 11.5696 4.90715 13.3131 3.43081ZM6.05158 10.9853C6.22055 10.7767 6.38952 10.5681 6.54181 10.3389L11.3481 16.8293L10.8597 22.156L4.48351 13.5559C4.93794 12.6981 5.44952 11.8275 6.05158 10.9853ZM4.89562 23.1295C3.50447 21.4916 3.02043 19.7231 3.15424 17.9256C3.23005 16.9334 3.47371 15.9401 3.865 14.9624L10.6509 24.1531L10.3877 26.9183C7.84912 25.7818 6.04977 24.5159 4.89562 23.1295ZM11.7331 27.0794L11.9963 24.3142L20.3792 16.7273C20.3792 16.7273 20.3959 16.748 20.3756 16.7647C20.65 18.1902 20.6827 19.609 20.3165 20.9101C19.9706 22.1945 19.2258 23.3613 18.0488 24.3691C16.6528 25.5237 14.6067 26.4585 11.7331 27.0794Z" fill="#97D64A"/>
<path d="M11.1945 28.5118L11.6015 28.4619C14.8882 27.8092 17.264 26.7394 18.8826 25.4009C20.2988 24.2296 21.159 22.8297 21.587 21.2709C22.0114 19.7495 21.9964 18.1438 21.7065 16.4902C21.3283 14.3933 20.487 12.2662 19.4135 10.2278C19.3968 10.2072 19.3802 10.1866 19.4004 10.1698C17.7122 6.95307 15.5324 4.00514 13.9316 2.02424L13.8982 1.98297L13.8482 1.92107C13.8315 1.90043 13.8148 1.8798 13.7946 1.89653C13.7779 1.8759 13.7613 1.85526 13.741 1.872C13.7327 1.86168 13.7235 1.8607 13.7142 1.85973C13.705 1.85875 13.6958 1.85778 13.6874 1.84746C13.6791 1.83714 13.6699 1.83617 13.6607 1.83519C13.6514 1.83422 13.6422 1.83324 13.6339 1.82292C13.6236 1.81017 13.6119 1.81169 13.5958 1.81379C13.5858 1.81509 13.5741 1.81661 13.56 1.81512L13.4862 1.80732C13.465 1.80507 13.456 1.80412 13.4483 1.8069C13.4426 1.80895 13.4377 1.81304 13.4291 1.82015L13.3553 1.81234C13.3452 1.82071 13.3359 1.81973 13.3267 1.81876C13.3175 1.81778 13.3083 1.81681 13.2981 1.82517C13.288 1.83354 13.2788 1.83256 13.2696 1.83159C13.2603 1.83061 13.2511 1.82964 13.241 1.838C13.2208 1.85473 13.2208 1.85473 13.1839 1.85083C13.1737 1.8592 13.1595 1.86241 13.1452 1.86561C13.1309 1.86882 13.1166 1.87203 13.1065 1.88039L13.066 1.91386L13.0053 1.96406C11.0464 3.54972 8.31752 5.97867 6.07334 8.79855L4.98815 10.2124C3.28668 12.6179 2.0341 15.2029 1.84226 17.8057C1.67643 19.9395 2.23918 22.056 3.9007 23.9867C5.24183 25.5627 7.3786 27.0544 10.353 28.3124L10.7738 28.4121L11.1945 28.5118ZM20.0381 15.2193L12.1883 22.2964L12.6934 16.9904L18.6271 11.6355C19.205 12.81 19.6852 14.0308 20.0381 15.2193ZM13.3131 3.43081C14.7436 5.24273 16.5398 7.71607 17.9993 10.3991L12.8819 15.01L13.4545 8.99394C13.4901 8.62027 13.2233 8.29012 12.8542 8.2511C12.4852 8.21208 12.1615 8.4798 12.1259 8.85346L11.5532 14.8695L7.40689 9.27923C9.34293 6.95517 11.5696 4.90715 13.3131 3.43081ZM6.05158 10.9853C6.22055 10.7767 6.38952 10.5681 6.54181 10.3389L11.3481 16.8293L10.8597 22.156L4.48351 13.5559C4.93794 12.6981 5.44952 11.8275 6.05158 10.9853ZM4.89562 23.1295C3.50447 21.4916 3.02043 19.7231 3.15424 17.9256C3.23005 16.9334 3.47371 15.9401 3.865 14.9624L10.6509 24.1531L10.3877 26.9183C7.84912 25.7818 6.04977 24.5159 4.89562 23.1295ZM11.7331 27.0794L11.9963 24.3142L20.3792 16.7273C20.3792 16.7273 20.3959 16.748 20.3756 16.7647C20.65 18.1902 20.6827 19.609 20.3165 20.9101C19.9706 22.1945 19.2258 23.3613 18.0488 24.3691C16.6528 25.5237 14.6067 26.4585 11.7331 27.0794Z" stroke="#97D64A"/>
<path d="M14.673 11.397L9.09278 14.8222L7.29266 20.6547L8.54141 25.947L11.8498 29.0218L17.9203 30.4567L23.1163 27.9007L26.7058 22.354L29.9629 12.6953L27.8016 12.0457L21.714 10.9554L14.673 11.397Z" fill="#E9FBD4"/>
<path d="M8.27469 26.949L8.573 27.2343C11.1736 29.38 13.5101 30.5521 15.5676 30.9641C17.3678 31.3247 18.9871 31.1073 20.4512 30.4527C21.8846 29.8189 23.1012 28.7898 24.1786 27.516C25.5381 25.8926 26.6244 23.8894 27.4945 21.7618C27.4995 21.7357 27.5046 21.7096 27.5304 21.7148C28.9072 18.3616 29.7643 14.796 30.2532 12.294L30.2634 12.2419L30.2787 12.1637C30.2838 12.1377 30.2889 12.1116 30.2631 12.1065C30.2682 12.0804 30.2733 12.0543 30.2476 12.0492C30.2502 12.0362 30.245 12.0284 30.2398 12.0206C30.2347 12.0128 30.2295 12.0049 30.2321 11.9919C30.2346 11.9789 30.2295 11.9711 30.2243 11.9633C30.2192 11.9555 30.214 11.9477 30.2166 11.9346C30.2197 11.9185 30.2111 11.9104 30.1992 11.8992C30.1918 11.8923 30.1832 11.8841 30.1753 11.8722L30.134 11.8098C30.1222 11.7918 30.1171 11.7842 30.1101 11.78C30.1049 11.7769 30.0986 11.7756 30.0877 11.7734L30.0465 11.711C30.0336 11.7084 30.0284 11.7006 30.0233 11.6928C30.0181 11.685 30.013 11.6772 30.0001 11.6746C29.9873 11.6721 29.9821 11.6643 29.9769 11.6565C29.9718 11.6487 29.9666 11.6409 29.9538 11.6383C29.9429 11.6361 29.9366 11.6348 29.9314 11.6317C29.9243 11.6275 29.9193 11.6199 29.9074 11.6019C29.8946 11.5993 29.883 11.5903 29.8714 11.5812C29.8598 11.5721 29.8482 11.563 29.8354 11.5604L29.7839 11.5501L29.7068 11.5347C27.2429 11.0141 23.6426 10.4285 20.0538 10.4681L18.28 10.5191C15.3548 10.7186 12.5795 11.3815 10.4691 12.8816C8.73348 14.1048 7.4771 15.8843 7.06534 18.4017C6.71954 20.4448 6.94702 23.054 7.88865 26.1674L8.08167 26.5582L8.27469 26.949ZM24.0821 25.4114L13.6568 23.784L18.032 20.8146L25.9165 22.0415C25.3891 23.2358 24.764 24.3835 24.0821 25.4114ZM28.7835 12.7038C28.3147 14.966 27.5747 17.9322 26.4591 20.769L19.6649 19.7063L24.6255 16.3396C24.9336 16.1305 25.0151 15.7135 24.8088 15.4014C24.6026 15.0892 24.1911 15.0068 23.883 15.2159L18.9224 18.5826L20.5396 11.8111C23.5527 11.8458 26.5409 12.2818 28.7835 12.7038ZM18.3699 11.837C18.6373 11.8364 18.9046 11.8358 19.1771 11.8091L17.2945 19.6649L12.9143 22.6603L15.4039 12.245C16.3496 12.0553 17.3417 11.9019 18.3699 11.837ZM8.35634 18.6331C8.71742 16.5118 9.75838 15.0141 11.2167 13.9792C12.0229 13.4094 12.9373 12.9697 13.9342 12.6548L11.2556 23.7635L8.97558 25.3109C8.21984 22.6139 8.03575 20.4105 8.35634 18.6331ZM9.713 26.4606L11.993 24.9132L23.1486 26.6327C23.1486 26.6327 23.1435 26.6588 23.1178 26.6536C22.2046 27.7707 21.142 28.6953 19.9142 29.2348C18.7121 29.7794 17.3447 29.9388 15.8222 29.661C14.0476 29.3056 12.0251 28.3048 9.713 26.4606Z" fill="#97D64A"/>
<path d="M8.27469 26.949L8.573 27.2343C11.1736 29.38 13.5101 30.5521 15.5676 30.9641C17.3678 31.3247 18.9871 31.1073 20.4512 30.4527C21.8846 29.8189 23.1012 28.7898 24.1786 27.516C25.5381 25.8926 26.6244 23.8894 27.4945 21.7618C27.4995 21.7357 27.5046 21.7096 27.5304 21.7148C28.9072 18.3616 29.7643 14.796 30.2532 12.294L30.2634 12.2419L30.2787 12.1637C30.2838 12.1377 30.2889 12.1116 30.2631 12.1065C30.2682 12.0804 30.2733 12.0543 30.2476 12.0492C30.2502 12.0362 30.245 12.0284 30.2398 12.0206C30.2347 12.0128 30.2295 12.0049 30.2321 11.9919C30.2346 11.9789 30.2295 11.9711 30.2243 11.9633C30.2192 11.9555 30.214 11.9477 30.2166 11.9346C30.2197 11.9185 30.2111 11.9104 30.1992 11.8992C30.1918 11.8923 30.1832 11.8841 30.1753 11.8722L30.134 11.8098C30.1222 11.7918 30.1171 11.7842 30.1101 11.78C30.1049 11.7769 30.0986 11.7756 30.0877 11.7734L30.0465 11.711C30.0336 11.7084 30.0284 11.7006 30.0233 11.6928C30.0181 11.685 30.013 11.6772 30.0001 11.6746C29.9873 11.6721 29.9821 11.6643 29.9769 11.6565C29.9718 11.6487 29.9666 11.6409 29.9538 11.6383C29.9429 11.6361 29.9366 11.6348 29.9314 11.6317C29.9243 11.6275 29.9193 11.6199 29.9074 11.6019C29.8946 11.5993 29.883 11.5903 29.8714 11.5812C29.8598 11.5721 29.8482 11.563 29.8354 11.5604L29.7839 11.5501L29.7068 11.5347C27.2429 11.0141 23.6426 10.4285 20.0538 10.4681L18.28 10.5191C15.3548 10.7186 12.5795 11.3815 10.4691 12.8816C8.73348 14.1048 7.4771 15.8843 7.06534 18.4017C6.71954 20.4448 6.94702 23.054 7.88865 26.1674L8.08167 26.5582L8.27469 26.949ZM24.0821 25.4114L13.6568 23.784L18.032 20.8146L25.9165 22.0415C25.3891 23.2358 24.764 24.3835 24.0821 25.4114ZM28.7835 12.7038C28.3147 14.966 27.5747 17.9322 26.4591 20.769L19.6649 19.7063L24.6255 16.3396C24.9336 16.1305 25.0151 15.7135 24.8088 15.4014C24.6026 15.0892 24.1911 15.0068 23.883 15.2159L18.9224 18.5826L20.5396 11.8111C23.5527 11.8458 26.5409 12.2818 28.7835 12.7038ZM18.3699 11.837C18.6373 11.8364 18.9046 11.8358 19.1771 11.8091L17.2945 19.6649L12.9143 22.6603L15.4039 12.245C16.3496 12.0553 17.3417 11.9019 18.3699 11.837ZM8.35634 18.6331C8.71742 16.5118 9.75838 15.0141 11.2167 13.9792C12.0229 13.4094 12.9373 12.9697 13.9342 12.6548L11.2556 23.7635L8.97558 25.3109C8.21984 22.6139 8.03575 20.4105 8.35634 18.6331ZM9.713 26.4606L11.993 24.9132L23.1486 26.6327C23.1486 26.6327 23.1435 26.6588 23.1178 26.6536C22.2046 27.7707 21.142 28.6953 19.9142 29.2348C18.7121 29.7794 17.3447 29.9388 15.8222 29.661C14.0476 29.3056 12.0251 28.3048 9.713 26.4606Z" stroke="#97D64A"/>
</g>
<path d="M43.3032 7.412H39.7192V5.3H49.4792V7.412H45.8952V16.5H43.3032V7.412ZM61.1458 5.3V16.5H58.5538V11.908H53.4658V16.5H50.8738V5.3H53.4658V9.716H58.5538V5.3H61.1458ZM72.4677 14.42V16.5H63.7957V5.3H72.2597V7.38H66.3717V9.812H71.5717V11.828H66.3717V14.42H72.4677ZM86.6293 10.724H88.9973V15.268C88.3893 15.7267 87.6853 16.0787 86.8853 16.324C86.0853 16.5693 85.2799 16.692 84.4693 16.692C83.3066 16.692 82.2613 16.4467 81.3333 15.956C80.4053 15.4547 79.6746 14.7667 79.1413 13.892C78.6186 13.0067 78.3573 12.0093 78.3573 10.9C78.3573 9.79067 78.6186 8.79867 79.1413 7.924C79.6746 7.03867 80.4106 6.35067 81.3493 5.86C82.2879 5.35867 83.3439 5.108 84.5173 5.108C85.4986 5.108 86.3893 5.27333 87.1893 5.604C87.9893 5.93467 88.6613 6.41467 89.2053 7.044L87.5413 8.58C86.7413 7.73733 85.7759 7.316 84.6453 7.316C83.9306 7.316 83.2959 7.46533 82.7413 7.764C82.1866 8.06267 81.7546 8.484 81.4453 9.028C81.1359 9.572 80.9813 10.196 80.9813 10.9C80.9813 11.5933 81.1359 12.212 81.4453 12.756C81.7546 13.3 82.1813 13.7267 82.7253 14.036C83.2799 14.3347 83.9093 14.484 84.6133 14.484C85.3599 14.484 86.0319 14.324 86.6293 14.004V10.724ZM98.541 16.5L96.381 13.38H96.253H93.997V16.5H91.405V5.3H96.253C97.245 5.3 98.1037 5.46533 98.829 5.796C99.565 6.12667 100.13 6.596 100.525 7.204C100.92 7.812 101.117 8.532 101.117 9.364C101.117 10.196 100.914 10.916 100.509 11.524C100.114 12.1213 99.549 12.58 98.813 12.9L101.325 16.5H98.541ZM98.493 9.364C98.493 8.73467 98.2904 8.25467 97.885 7.924C97.4797 7.58267 96.8877 7.412 96.109 7.412H93.997V11.316H96.109C96.8877 11.316 97.4797 11.1453 97.885 10.804C98.2904 10.4627 98.493 9.98267 98.493 9.364ZM103.171 5.3H105.763V16.5H103.171V5.3ZM108.421 5.3H111.013V14.388H116.629V16.5H108.421V5.3ZM118.077 5.3H120.669V14.388H126.285V16.5H118.077V5.3ZM136.405 14.42V16.5H127.733V5.3H136.197V7.38H130.309V9.812H135.509V11.828H130.309V14.42H136.405ZM142.148 16.692C141.262 16.692 140.404 16.5747 139.572 16.34C138.75 16.0947 138.089 15.78 137.588 15.396L138.468 13.444C138.948 13.796 139.518 14.0787 140.18 14.292C140.841 14.5053 141.502 14.612 142.164 14.612C142.9 14.612 143.444 14.5053 143.796 14.292C144.148 14.068 144.324 13.7747 144.324 13.412C144.324 13.1453 144.217 12.9267 144.004 12.756C143.801 12.5747 143.534 12.4307 143.204 12.324C142.884 12.2173 142.446 12.1 141.892 11.972C141.038 11.7693 140.34 11.5667 139.796 11.364C139.252 11.1613 138.782 10.836 138.388 10.388C138.004 9.94 137.812 9.34267 137.812 8.596C137.812 7.94533 137.988 7.35867 138.34 6.836C138.692 6.30267 139.22 5.88133 139.924 5.572C140.638 5.26267 141.508 5.108 142.532 5.108C143.246 5.108 143.945 5.19333 144.628 5.364C145.31 5.53467 145.908 5.78 146.42 6.1L145.62 8.068C144.585 7.48133 143.55 7.188 142.516 7.188C141.79 7.188 141.252 7.30533 140.9 7.54C140.558 7.77467 140.388 8.084 140.388 8.468C140.388 8.852 140.585 9.14 140.98 9.332C141.385 9.51333 141.998 9.69467 142.82 9.876C143.673 10.0787 144.372 10.2813 144.916 10.484C145.46 10.6867 145.924 11.0067 146.308 11.444C146.702 11.8813 146.9 12.4733 146.9 13.22C146.9 13.86 146.718 14.4467 146.356 14.98C146.004 15.5027 145.47 15.9187 144.756 16.228C144.041 16.5373 143.172 16.692 142.148 16.692Z" fill="black"/>
<path d="M43.0512 24.14C43.8752 24.14 44.5072 24.348 44.9472 24.764C45.3872 25.172 45.6072 25.78 45.6072 26.588V30.5H44.7912V29.516C44.5992 29.844 44.3152 30.1 43.9392 30.284C43.5712 30.468 43.1312 30.56 42.6192 30.56C41.9152 30.56 41.3552 30.392 40.9392 30.056C40.5232 29.72 40.3152 29.276 40.3152 28.724C40.3152 28.188 40.5072 27.756 40.8912 27.428C41.2832 27.1 41.9032 26.936 42.7512 26.936H44.7552V26.552C44.7552 26.008 44.6032 25.596 44.2992 25.316C43.9952 25.028 43.5512 24.884 42.9672 24.884C42.5672 24.884 42.1832 24.952 41.8152 25.088C41.4472 25.216 41.1312 25.396 40.8672 25.628L40.4832 24.992C40.8032 24.72 41.1872 24.512 41.6352 24.368C42.0832 24.216 42.5552 24.14 43.0512 24.14ZM42.7512 29.888C43.2312 29.888 43.6432 29.78 43.9872 29.564C44.3312 29.34 44.5872 29.02 44.7552 28.604V27.572H42.7752C41.6952 27.572 41.1552 27.948 41.1552 28.7C41.1552 29.068 41.2952 29.36 41.5752 29.576C41.8552 29.784 42.2472 29.888 42.7512 29.888ZM51.1373 24.14C51.9293 24.14 52.5573 24.372 53.0213 24.836C53.4933 25.292 53.7293 25.96 53.7293 26.84V30.5H52.8773V26.924C52.8773 26.268 52.7133 25.768 52.3853 25.424C52.0573 25.08 51.5893 24.908 50.9813 24.908C50.3013 24.908 49.7613 25.112 49.3613 25.52C48.9693 25.92 48.7733 26.476 48.7733 27.188V30.5H47.9213V24.188H48.7373V25.352C48.9693 24.968 49.2893 24.672 49.6973 24.464C50.1133 24.248 50.5933 24.14 51.1373 24.14ZM61.8258 21.596V30.5H61.0098V29.252C60.7538 29.676 60.4138 30 59.9898 30.224C59.5738 30.448 59.1018 30.56 58.5738 30.56C57.9818 30.56 57.4458 30.424 56.9658 30.152C56.4858 29.88 56.1098 29.5 55.8378 29.012C55.5658 28.524 55.4298 27.968 55.4298 27.344C55.4298 26.72 55.5658 26.164 55.8378 25.676C56.1098 25.188 56.4858 24.812 56.9658 24.548C57.4458 24.276 57.9818 24.14 58.5738 24.14C59.0858 24.14 59.5458 24.248 59.9538 24.464C60.3698 24.672 60.7098 24.98 60.9738 25.388V21.596H61.8258ZM58.6458 29.804C59.0858 29.804 59.4818 29.704 59.8338 29.504C60.1938 29.296 60.4738 29.004 60.6738 28.628C60.8818 28.252 60.9858 27.824 60.9858 27.344C60.9858 26.864 60.8818 26.436 60.6738 26.06C60.4738 25.684 60.1938 25.396 59.8338 25.196C59.4818 24.988 59.0858 24.884 58.6458 24.884C58.1978 24.884 57.7938 24.988 57.4338 25.196C57.0818 25.396 56.8018 25.684 56.5938 26.06C56.3938 26.436 56.2938 26.864 56.2938 27.344C56.2938 27.824 56.3938 28.252 56.5938 28.628C56.8018 29.004 57.0818 29.296 57.4338 29.504C57.7938 29.704 58.1978 29.804 58.6458 29.804ZM70.5552 24.14C71.3472 24.14 71.9752 24.372 72.4392 24.836C72.9112 25.292 73.1472 25.96 73.1472 26.84V30.5H72.2952V26.924C72.2952 26.268 72.1312 25.768 71.8032 25.424C71.4752 25.08 71.0072 24.908 70.3992 24.908C69.7192 24.908 69.1792 25.112 68.7792 25.52C68.3872 25.92 68.1912 26.476 68.1912 27.188V30.5H67.3392V24.188H68.1552V25.352C68.3872 24.968 68.7072 24.672 69.1152 24.464C69.5312 24.248 70.0112 24.14 70.5552 24.14ZM78.0638 30.56C77.4558 30.56 76.9078 30.424 76.4198 30.152C75.9318 29.872 75.5478 29.488 75.2678 29C74.9878 28.512 74.8478 27.96 74.8478 27.344C74.8478 26.728 74.9878 26.176 75.2678 25.688C75.5478 25.2 75.9318 24.82 76.4198 24.548C76.9078 24.276 77.4558 24.14 78.0638 24.14C78.6718 24.14 79.2198 24.276 79.7078 24.548C80.1958 24.82 80.5758 25.2 80.8478 25.688C81.1278 26.176 81.2678 26.728 81.2678 27.344C81.2678 27.96 81.1278 28.512 80.8478 29C80.5758 29.488 80.1958 29.872 79.7078 30.152C79.2198 30.424 78.6718 30.56 78.0638 30.56ZM78.0638 29.804C78.5118 29.804 78.9118 29.704 79.2638 29.504C79.6238 29.296 79.9038 29.004 80.1038 28.628C80.3038 28.252 80.4038 27.824 80.4038 27.344C80.4038 26.864 80.3038 26.436 80.1038 26.06C79.9038 25.684 79.6238 25.396 79.2638 25.196C78.9118 24.988 78.5118 24.884 78.0638 24.884C77.6158 24.884 77.2118 24.988 76.8518 25.196C76.4998 25.396 76.2198 25.684 76.0118 26.06C75.8118 26.436 75.7118 26.864 75.7118 27.344C75.7118 27.824 75.8118 28.252 76.0118 28.628C76.2198 29.004 76.4998 29.296 76.8518 29.504C77.2118 29.704 77.6158 29.804 78.0638 29.804ZM86.3312 30.116C86.1712 30.26 85.9712 30.372 85.7312 30.452C85.4992 30.524 85.2552 30.56 84.9992 30.56C84.4072 30.56 83.9512 30.4 83.6312 30.08C83.3112 29.76 83.1512 29.308 83.1512 28.724V24.908H82.0232V24.188H83.1512V22.808H84.0032V24.188H85.9232V24.908H84.0032V28.676C84.0032 29.052 84.0952 29.34 84.2792 29.54C84.4712 29.732 84.7432 29.828 85.0952 29.828C85.2712 29.828 85.4392 29.8 85.5992 29.744C85.7672 29.688 85.9112 29.608 86.0312 29.504L86.3312 30.116ZM93.6028 30.56C92.9948 30.56 92.4468 30.424 91.9588 30.152C91.4708 29.872 91.0868 29.488 90.8068 29C90.5268 28.512 90.3868 27.96 90.3868 27.344C90.3868 26.728 90.5268 26.176 90.8068 25.688C91.0868 25.2 91.4708 24.82 91.9588 24.548C92.4468 24.276 92.9948 24.14 93.6028 24.14C94.2108 24.14 94.7588 24.276 95.2468 24.548C95.7348 24.82 96.1148 25.2 96.3868 25.688C96.6668 26.176 96.8068 26.728 96.8068 27.344C96.8068 27.96 96.6668 28.512 96.3868 29C96.1148 29.488 95.7348 29.872 95.2468 30.152C94.7588 30.424 94.2108 30.56 93.6028 30.56ZM93.6028 29.804C94.0508 29.804 94.4508 29.704 94.8028 29.504C95.1628 29.296 95.4428 29.004 95.6428 28.628C95.8428 28.252 95.9428 27.824 95.9428 27.344C95.9428 26.864 95.8428 26.436 95.6428 26.06C95.4428 25.684 95.1628 25.396 94.8028 25.196C94.4508 24.988 94.0508 24.884 93.6028 24.884C93.1548 24.884 92.7508 24.988 92.3908 25.196C92.0388 25.396 91.7588 25.684 91.5508 26.06C91.3508 26.436 91.2508 26.864 91.2508 27.344C91.2508 27.824 91.3508 28.252 91.5508 28.628C91.7588 29.004 92.0388 29.296 92.3908 29.504C92.7508 29.704 93.1548 29.804 93.6028 29.804ZM101.762 24.14C102.554 24.14 103.182 24.372 103.646 24.836C104.118 25.292 104.354 25.96 104.354 26.84V30.5H103.502V26.924C103.502 26.268 103.338 25.768 103.01 25.424C102.682 25.08 102.214 24.908 101.606 24.908C100.926 24.908 100.386 25.112 99.9863 25.52C99.5943 25.92 99.3983 26.476 99.3983 27.188V30.5H98.5463V24.188H99.3623V25.352C99.5943 24.968 99.9143 24.672 100.322 24.464C100.738 24.248 101.218 24.14 101.762 24.14ZM106.667 21.596H107.519V30.5H106.667V21.596ZM115.194 24.188L112.038 31.256C111.782 31.848 111.486 32.268 111.15 32.516C110.814 32.764 110.41 32.888 109.938 32.888C109.634 32.888 109.35 32.84 109.086 32.744C108.822 32.648 108.594 32.504 108.402 32.312L108.798 31.676C109.118 31.996 109.502 32.156 109.95 32.156C110.238 32.156 110.482 32.076 110.682 31.916C110.89 31.756 111.082 31.484 111.258 31.1L111.534 30.488L108.714 24.188H109.602L111.978 29.552L114.354 24.188H115.194Z" fill="black"/>
<defs>
<clipPath id="clip0">
<rect width="31.6552" height="34" fill="white"/>
</clipPath>
</defs>
</svg>
