<svg width="26" height="26" viewBox="0 0 26 26" fill="none" xmlns="http://www.w3.org/2000/svg">
<path d="M21.6667 23.8334C22.265 23.8334 22.75 23.3484 22.75 22.7501C22.75 22.1518 22.265 21.6667 21.6667 21.6667C21.0684 21.6667 20.5834 22.1518 20.5834 22.7501C20.5834 23.3484 21.0684 23.8334 21.6667 23.8334Z" stroke="white" stroke-width="1.5" stroke-linecap="round" stroke-linejoin="round"/>
<path d="M9.74996 23.8334C10.3483 23.8334 10.8333 23.3484 10.8333 22.7501C10.8333 22.1518 10.3483 21.6667 9.74996 21.6667C9.15165 21.6667 8.66663 22.1518 8.66663 22.7501C8.66663 23.3484 9.15165 23.8334 9.74996 23.8334Z" stroke="white" stroke-width="1.5" stroke-linecap="round" stroke-linejoin="round"/>
<path d="M1.08337 1.08325H5.41671L8.32004 15.5891C8.4191 16.0878 8.69044 16.5359 9.08655 16.8547C9.48266 17.1736 9.9783 17.343 10.4867 17.3333H21.0167C21.5251 17.343 22.0208 17.1736 22.4169 16.8547C22.813 16.5359 23.0843 16.0878 23.1834 15.5891L24.9167 6.49992H6.50004" stroke="white" stroke-width="2" stroke-linecap="round" stroke-linejoin="round"/>
</svg>
