<svg width="19" height="19" viewBox="0 0 19 19" fill="none" xmlns="http://www.w3.org/2000/svg">
<path d="M7.48516 10.5475H1.84141C1.62758 10.5475 1.4225 10.6324 1.2713 10.7836C1.1201 10.9348 1.03516 11.1399 1.03516 11.3537V16.9975C1.03516 17.2113 1.1201 17.4164 1.2713 17.5676C1.4225 17.7188 1.62758 17.8037 1.84141 17.8037H7.48516C7.69899 17.8037 7.90406 17.7188 8.05526 17.5676C8.20646 17.4164 8.29141 17.2113 8.29141 16.9975V11.3537C8.29141 11.1399 8.20646 10.9348 8.05526 10.7836C7.90406 10.6324 7.69899 10.5475 7.48516 10.5475ZM6.67891 16.1912H2.64766V12.16H6.67891V16.1912ZM16.3539 1.67871H10.7102C10.4963 1.67871 10.2913 1.76365 10.1401 1.91486C9.98885 2.06606 9.90391 2.27113 9.90391 2.48496V8.12871C9.90391 8.34254 9.98885 8.54761 10.1401 8.69882C10.2913 8.85002 10.4963 8.93496 10.7102 8.93496H16.3539C16.5677 8.93496 16.7728 8.85002 16.924 8.69882C17.0752 8.54761 17.1602 8.34254 17.1602 8.12871V2.48496C17.1602 2.27113 17.0752 2.06606 16.924 1.91486C16.7728 1.76365 16.5677 1.67871 16.3539 1.67871ZM15.5477 7.32246H11.5164V3.29121H15.5477V7.32246ZM16.3539 10.5475H10.7102C10.4963 10.5475 10.2913 10.6324 10.1401 10.7836C9.98885 10.9348 9.90391 11.1399 9.90391 11.3537V16.9975C9.90391 17.2113 9.98885 17.4164 10.1401 17.5676C10.2913 17.7188 10.4963 17.8037 10.7102 17.8037H16.3539C16.5677 17.8037 16.7728 17.7188 16.924 17.5676C17.0752 17.4164 17.1602 17.2113 17.1602 16.9975V11.3537C17.1602 11.1399 17.0752 10.9348 16.924 10.7836C16.7728 10.6324 16.5677 10.5475 16.3539 10.5475ZM15.5477 16.1912H11.5164V12.16H15.5477V16.1912ZM7.48516 1.67871H1.84141C1.62758 1.67871 1.4225 1.76365 1.2713 1.91486C1.1201 2.06606 1.03516 2.27113 1.03516 2.48496V8.12871C1.03516 8.34254 1.1201 8.54761 1.2713 8.69882C1.4225 8.85002 1.62758 8.93496 1.84141 8.93496H7.48516C7.69899 8.93496 7.90406 8.85002 8.05526 8.69882C8.20646 8.54761 8.29141 8.34254 8.29141 8.12871V2.48496C8.29141 2.27113 8.20646 2.06606 8.05526 1.91486C7.90406 1.76365 7.69899 1.67871 7.48516 1.67871ZM6.67891 7.32246H2.64766V3.29121H6.67891V7.32246Z" fill="#3D3D3D"/>
</svg>
