<svg width="16" height="20" viewBox="0 0 16 20" fill="none" xmlns="http://www.w3.org/2000/svg">
<g clip-path="url(#clip0)">
<path d="M9.46586 10.8955L15.696 4.66519C16.1014 4.25994 16.1014 3.6047 15.696 3.19945C15.2907 2.79419 14.6355 2.79419 14.2302 3.19945L7.99992 9.42972L1.76983 3.19945C1.36439 2.79419 0.709337 2.79419 0.304083 3.19945C-0.101361 3.6047 -0.101361 4.25994 0.304083 4.66519L6.53417 10.8955L0.304083 17.1257C-0.101361 17.531 -0.101361 18.1862 0.304083 18.5915C0.506046 18.7936 0.771596 18.8952 1.03696 18.8952C1.30232 18.8952 1.56768 18.7936 1.76983 18.5915L7.99992 12.3612L14.2302 18.5915C14.4324 18.7936 14.6977 18.8952 14.9631 18.8952C15.2284 18.8952 15.4938 18.7936 15.696 18.5915C16.1014 18.1862 16.1014 17.531 15.696 17.1257L9.46586 10.8955Z" fill="black"/>
</g>
<defs>
<clipPath id="clip0">
<rect width="16" height="19.5586" fill="white"/>
</clipPath>
</defs>
</svg>
