<svg width="17" height="17" viewBox="0 0 17 17" fill="none" xmlns="http://www.w3.org/2000/svg">
<path d="M10.0049 8.51363L16.235 2.28336C16.6405 1.8781 16.6405 1.22287 16.235 0.817612C15.8298 0.412359 15.1745 0.412359 14.7693 0.817612L8.53898 7.04788L2.30889 0.817612C1.90345 0.412359 1.2484 0.412359 0.843145 0.817612C0.437702 1.22287 0.437702 1.8781 0.843145 2.28336L7.07324 8.51363L0.843145 14.7439C0.437702 15.1492 0.437702 15.8044 0.843145 16.2096C1.04511 16.4118 1.31066 16.5133 1.57602 16.5133C1.84138 16.5133 2.10674 16.4118 2.30889 16.2096L8.53898 9.97937L14.7693 16.2096C14.9714 16.4118 15.2368 16.5133 15.5021 16.5133C15.7675 16.5133 16.0329 16.4118 16.235 16.2096C16.6405 15.8044 16.6405 15.1492 16.235 14.7439L10.0049 8.51363Z" fill="black"/>
</svg>
