<svg width="49" height="2" viewBox="0 0 49 2" fill="none" xmlns="http://www.w3.org/2000/svg">
<path d="M0.127656 1.25V0.0739999H0.835656V1.25H0.127656ZM2.40109 1.25V0.0739999H3.10909V1.25H2.40109ZM4.67453 1.25V0.0739999H5.38253V1.25H4.67453ZM6.94797 1.25V0.0739999H7.65597V1.25H6.94797ZM9.22141 1.25V0.0739999H9.92941V1.25H9.22141ZM11.4948 1.25V0.0739999H12.2028V1.25H11.4948ZM13.7683 1.25V0.0739999H14.4763V1.25H13.7683ZM16.0417 1.25V0.0739999H16.7497V1.25H16.0417ZM18.3152 1.25V0.0739999H19.0232V1.25H18.3152ZM20.5886 1.25V0.0739999H21.2966V1.25H20.5886ZM22.862 1.25V0.0739999H23.57V1.25H22.862ZM25.1355 1.25V0.0739999H25.8435V1.25H25.1355ZM27.4089 1.25V0.0739999H28.1169V1.25H27.4089ZM29.6823 1.25V0.0739999H30.3903V1.25H29.6823ZM31.9558 1.25V0.0739999H32.6638V1.25H31.9558ZM34.2292 1.25V0.0739999H34.9372V1.25H34.2292ZM36.5027 1.25V0.0739999H37.2107V1.25H36.5027ZM38.7761 1.25V0.0739999H39.4841V1.25H38.7761ZM41.0495 1.25V0.0739999H41.7575V1.25H41.0495ZM43.323 1.25V0.0739999H44.031V1.25H43.323ZM45.5964 1.25V0.0739999H46.3044V1.25H45.5964ZM47.8698 1.25V0.0739999H48.5778V1.25H47.8698Z" fill="#ACACAC"/>
</svg>
