<svg width="17" height="17" viewBox="0 0 17 17" fill="none" xmlns="http://www.w3.org/2000/svg">
<path d="M7.7494 13.0313C7.82775 13.1096 7.92076 13.1718 8.02313 13.2142C8.1255 13.2566 8.23523 13.2784 8.34603 13.2784C8.45684 13.2784 8.56656 13.2566 8.66893 13.2142C8.7713 13.1718 8.86432 13.1096 8.94267 13.0313L12.1246 9.84934C12.2829 9.6911 12.3718 9.47649 12.3718 9.25272C12.3718 9.02894 12.2829 8.81433 12.1246 8.6561C11.9664 8.49787 11.7518 8.40897 11.528 8.40897C11.3042 8.40897 11.0896 8.49787 10.9314 8.6561L9.18978 10.3977V1.18469C9.18978 0.960916 9.10089 0.746305 8.94265 0.588071C8.78442 0.429837 8.56981 0.340942 8.34603 0.340942C8.12226 0.340942 7.90764 0.429837 7.74941 0.588071C7.59118 0.746305 7.50228 0.960916 7.50228 1.18469V10.3977L5.76068 8.6561C5.60244 8.49787 5.38783 8.40897 5.16406 8.40897C4.94028 8.40897 4.72567 8.49787 4.56744 8.6561C4.40921 8.81433 4.32031 9.02894 4.32031 9.25272C4.32031 9.47649 4.40921 9.6911 4.56744 9.84934L7.7494 13.0313Z" fill="#7DA152"/>
<path d="M15.6602 7.65344C15.4364 7.65344 15.2218 7.74234 15.0635 7.90057C14.9053 8.0588 14.8164 8.27342 14.8164 8.49719V14.9659H1.87891V8.49719C1.87891 8.27342 1.79001 8.0588 1.63178 7.90057C1.47354 7.74234 1.25893 7.65344 1.03516 7.65344C0.81138 7.65344 0.596769 7.74234 0.438535 7.90057C0.280301 8.0588 0.191406 8.27342 0.191406 8.49719V15.2472C0.191406 15.6202 0.339564 15.9778 0.603287 16.2416C0.86701 16.5053 1.2247 16.6534 1.59766 16.6534H15.0977C15.4706 16.6534 15.8283 16.5053 16.092 16.2416C16.3557 15.9778 16.5039 15.6202 16.5039 15.2472V8.49719C16.5039 8.27342 16.415 8.0588 16.2568 7.90057C16.0985 7.74234 15.8839 7.65344 15.6602 7.65344Z" fill="#7DA152"/>
</svg>
