<svg width="141" height="140" viewBox="0 0 141 140" fill="none" xmlns="http://www.w3.org/2000/svg">
<path d="M117.013 128.333C120.235 128.333 122.846 125.722 122.846 122.5C122.846 119.278 120.235 116.667 117.013 116.667C113.791 116.667 111.18 119.278 111.18 122.5C111.18 125.722 113.791 128.333 117.013 128.333Z" stroke="#E8E8E8" stroke-width="10" stroke-linecap="round" stroke-linejoin="round"/>
<path d="M52.849 128.333C56.0706 128.333 58.6823 125.722 58.6823 122.5C58.6823 119.278 56.0706 116.667 52.849 116.667C49.6273 116.667 47.0156 119.278 47.0156 122.5C47.0156 125.722 49.6273 128.333 52.849 128.333Z" stroke="#E8E8E8" stroke-width="10" stroke-linecap="round" stroke-linejoin="round"/>
<path d="M6.17969 5.83337H29.513L45.1464 83.9417C45.6798 86.6274 47.1408 89.0398 49.2737 90.7568C51.4066 92.4738 54.0754 93.3859 56.813 93.3334H113.513C116.251 93.3859 118.919 92.4738 121.052 90.7568C123.185 89.0398 124.646 86.6274 125.18 83.9417L134.513 35H35.3464" stroke="#E8E8E8" stroke-width="10" stroke-linecap="round" stroke-linejoin="round"/>
</svg>
