<svg width="141" height="113" viewBox="0 0 141 113" fill="none" xmlns="http://www.w3.org/2000/svg">
<path d="M15.262 28.6565L12.9961 27.3109V29.9462V97.2019C12.9961 98.5826 14.1154 99.7019 15.4961 99.7019H125.496C126.877 99.7019 127.996 98.5826 127.996 97.2019V29.9462V27.3109L125.73 28.6565L70.4961 61.4573L15.262 28.6565ZM126.496 1.7019C133.368 1.7019 138.996 7.33033 138.996 14.2019V98.2019C138.996 105.073 133.368 110.702 126.496 110.702H14.4961C7.62452 110.702 1.99609 105.073 1.99609 98.2019V14.2019C1.99609 7.33033 7.62452 1.7019 14.4961 1.7019H126.496ZM126.648 15.8599C128.127 14.973 127.498 12.7019 125.774 12.7019H15.2185C13.4941 12.7019 12.8653 14.973 14.3442 15.8598L69.2103 48.7628C70.0018 49.2374 70.9904 49.2374 71.7819 48.7628L126.648 15.8599Z" fill="#E8E8E8" stroke="white" stroke-width="3"/>
</svg>
