<svg width="36" height="36" viewBox="0 0 36 36" fill="none" xmlns="http://www.w3.org/2000/svg">
<path d="M5.49211 27.4036L5.4921 27.4036C4.70424 26.0386 4.42402 24.659 4.70643 23.4105C4.98848 22.1636 5.83515 21.0322 7.33163 20.1678L7.33165 20.1678C9.07277 19.1618 10.9966 19.0271 12.9509 19.4623C12.6203 21.8206 13.9651 24.0465 16.0951 24.9089C15.446 26.9757 14.2976 28.4894 12.6739 29.4273C11.1821 30.2891 9.78112 30.4595 8.5607 30.0825C7.33876 29.7049 6.28269 28.7738 5.49211 27.4036ZM18.1671 22.5728L18.1668 22.5729C16.7807 22.6727 15.6011 21.5603 15.6011 20.1774C15.6011 18.9026 16.5938 17.8584 17.8517 17.7805C19.2214 17.6958 20.4003 18.7822 20.4003 20.1774C20.4003 21.4316 19.4232 22.4862 18.1671 22.5728ZM30.5092 27.4036L30.4958 27.4268C29.7095 28.7796 28.6606 29.7036 27.4459 30.0808C26.226 30.4597 24.8236 30.2916 23.3275 29.4273C21.7038 28.4893 20.5553 26.9757 19.9063 24.9089C22.054 24.0392 23.3782 21.8017 23.0505 19.4622C25.1632 18.9917 27.0469 19.2301 28.6699 20.1679L28.6699 20.1679C30.1617 21.0296 31.0098 22.1586 31.2937 23.4049C31.5779 24.6527 31.2999 26.0336 30.5092 27.4036ZM33.9408 22.8728C33.4954 20.7947 32.1354 19.0517 30.02 17.8298C28.2989 16.8354 26.3435 16.4126 24.2542 16.5648C25.4305 14.8305 26.0424 12.925 26.0424 10.937C26.0424 8.49727 25.2061 6.51701 23.7775 5.14685C22.3495 3.77722 20.3379 3.02497 18.0007 3.02497C15.6676 3.02497 13.656 3.77475 12.227 5.14313C10.7974 6.51206 9.959 8.49234 9.959 10.9369C9.959 12.9249 10.5709 14.8304 11.7472 16.5648C9.6579 16.4126 7.70254 16.8353 5.98148 17.8297C3.86089 19.0545 2.56737 20.7736 2.09912 22.6974C1.63107 24.6204 1.99021 26.7369 3.15407 28.7534C4.30264 30.744 5.94269 32.1206 7.83877 32.6867C9.73588 33.2531 11.8785 33.0049 14.0241 31.7655C15.7447 30.7716 17.0879 29.2893 18.0007 27.4041C18.9134 29.2893 20.2566 30.7716 21.9773 31.7655C24.096 32.9894 26.2302 33.2519 28.1298 32.6967C30.0286 32.1416 31.6821 30.7727 32.8472 28.7535C33.9679 26.8118 34.349 24.7777 33.9408 22.8728ZM18.0007 5.72503C19.5837 5.72503 20.9175 6.17553 21.8547 7.04612C22.7908 7.91566 23.3428 9.215 23.3428 10.9369C23.3428 12.8117 22.6072 14.5633 21.1435 16.1594C19.3073 14.7208 16.7089 14.7097 14.8579 16.1595C13.3941 14.5633 12.6586 12.8118 12.6586 10.9369C12.6585 9.22039 13.2077 7.92101 14.1423 7.05012C15.0781 6.17822 16.4119 5.72503 18.0007 5.72503Z" fill="black" stroke="black" stroke-width="0.2"/>
</svg>
