<svg width="21" height="21" viewBox="0 0 21 21" fill="none" xmlns="http://www.w3.org/2000/svg">
<path d="M19.6515 14.7102L16.8604 11.9192C15.8636 10.9223 14.169 11.3211 13.7703 12.6169C13.4712 13.5141 12.4744 14.0125 11.5773 13.8131C9.5837 13.3147 6.89232 10.723 6.39392 8.62969C6.09487 7.73252 6.69296 6.73571 7.59009 6.43671C8.88593 6.03799 9.28466 4.34342 8.28785 3.34661L5.49679 0.55555C4.69935 -0.142215 3.50318 -0.142215 2.80541 0.55555L0.911479 2.44948C-0.982455 4.4431 1.11084 9.72617 5.79583 14.4112C10.4808 19.0962 15.7639 21.2892 17.7575 19.2955L19.6515 17.4016C20.3493 16.6041 20.3493 15.408 19.6515 14.7102Z" fill="white"/>
</svg>
