<svg width="16" height="17" viewBox="0 0 16 17" fill="none" xmlns="http://www.w3.org/2000/svg">
<path d="M15.5645 12.5222L13.3317 10.2893C12.5342 9.49188 11.1786 9.81089 10.8596 10.8475C10.6203 11.5653 9.8229 11.964 9.1052 11.8045C7.51031 11.4057 5.3572 9.33239 4.95848 7.65775C4.71925 6.94002 5.19771 6.14258 5.91542 5.90337C6.9521 5.5844 7.27107 4.22874 6.47363 3.43129L4.24078 1.19844C3.60282 0.640232 2.64589 0.640232 2.08768 1.19844L0.57253 2.71359C-0.942617 4.30848 0.732019 8.53494 4.48001 12.2829C8.22801 16.0309 12.4545 17.7853 14.0494 16.1904L15.5645 14.6753C16.1228 14.0373 16.1228 13.0804 15.5645 12.5222Z" fill="white" fill-opacity="0.7"/>
</svg>
