<svg width="16" height="17" viewBox="0 0 16 17" fill="none" xmlns="http://www.w3.org/2000/svg">
<path d="M14.4466 1.96979H1.53618C1.29454 1.96979 1.07016 2.02157 0.863037 2.12513L7.99141 7.90722L15.1198 2.12513C14.9127 2.02157 14.7055 1.96979 14.4466 1.96979Z" fill="white" fill-opacity="0.7"/>
<path d="M8.47465 9.49512C8.33657 9.61594 8.16397 9.66772 7.99137 9.66772C7.81877 9.66772 7.64617 9.61594 7.50809 9.49512L0 3.40234C0 3.43686 0 3.45412 0 3.5059V12.8781C0 13.7238 0.690399 14.4142 1.53614 14.4142H14.4639C15.3096 14.4142 16 13.7238 16 12.8781V3.5059C16 3.47138 16 3.45412 16 3.40234L8.47465 9.49512Z" fill="white" fill-opacity="0.7"/>
</svg>
