<svg width="56" height="61" viewBox="0 0 56 61" fill="none" xmlns="http://www.w3.org/2000/svg">
<g clip-path="url(#clip0)">
<path d="M20.0186 50.6703L20.7312 50.5832C26.4869 49.4408 30.647 47.566 33.4806 45.2191C35.96 43.1655 37.4654 40.7105 38.2137 37.9763C38.9559 35.3076 38.9285 32.4909 38.4194 29.5899C37.7554 25.911 36.2803 22.1789 34.3987 18.6023C34.3695 18.5661 34.3403 18.5298 34.3757 18.5005C31.4166 12.8562 27.5967 7.68303 24.7916 4.20678L24.7332 4.13436L24.6455 4.02573C24.6163 3.98951 24.5871 3.9533 24.5516 3.98264C24.5224 3.94643 24.4932 3.91022 24.4578 3.93955C24.4432 3.92145 24.427 3.91973 24.4109 3.91801C24.3947 3.91629 24.3785 3.91457 24.3639 3.89647C24.3493 3.87836 24.3332 3.87665 24.317 3.87493C24.3008 3.87321 24.2847 3.87149 24.2701 3.85338C24.252 3.831 24.2316 3.83366 24.2033 3.83733C24.1859 3.8396 24.1655 3.84226 24.1408 3.83964L24.0115 3.82589C23.9743 3.82193 23.9585 3.82025 23.9451 3.82513C23.9351 3.82872 23.9265 3.83589 23.9114 3.84835L23.7822 3.8346C23.7644 3.84927 23.7483 3.84755 23.7321 3.84583C23.716 3.84411 23.6998 3.84239 23.6821 3.85706C23.6644 3.87173 23.6482 3.87001 23.6321 3.86829C23.6159 3.86657 23.5997 3.86486 23.582 3.87952C23.5466 3.90886 23.5466 3.90886 23.482 3.90199C23.4643 3.91665 23.4393 3.92227 23.4142 3.92789C23.3892 3.9335 23.3642 3.93912 23.3465 3.95378L23.2757 4.01246L23.1694 4.10047C19.7398 6.88056 14.9625 11.1394 11.0344 16.0844L9.13493 18.5638C6.15692 22.7822 3.96522 27.316 3.63126 31.8819C3.34249 35.625 4.3297 39.3382 7.24109 42.7265C9.59109 45.4923 13.3345 48.1107 18.5446 50.32L19.2816 50.4951L20.0186 50.6703ZM35.4965 27.359L21.7543 39.7679L22.6347 30.4601L33.0226 21.0711C34.0355 23.1319 34.8776 25.2739 35.4965 27.359ZM23.7095 6.67376C26.2162 9.85345 29.364 14.1937 31.922 18.9016L22.9633 26.9861L23.9616 16.433C24.0236 15.7775 23.556 15.1981 22.9096 15.1294C22.2632 15.0606 21.6965 15.53 21.6345 16.1855L20.6363 26.7386L13.3703 16.9287C16.7591 12.8532 20.6571 9.26225 23.7095 6.67376ZM10.998 19.9205C11.2937 19.5547 11.5895 19.1889 11.856 18.7869L20.2784 30.1764L19.4272 39.5204L8.25371 24.4287C9.04892 22.9243 9.94418 21.3974 10.998 19.9205ZM8.98288 41.2234C6.54522 38.349 5.69613 35.2463 5.92909 32.0932C6.06108 30.3527 6.48705 28.6104 7.17157 26.8957L19.0632 43.0237L18.6044 47.8743C14.1575 45.8786 11.0053 43.6565 8.98288 41.2234ZM20.9607 48.1579L21.4195 43.3074L36.095 30.0047C36.095 30.0047 36.1242 30.0409 36.0888 30.0703C36.5704 32.5711 36.6288 35.0601 35.9885 37.3424C35.3837 39.5953 34.0802 41.6415 32.0196 43.4085C29.5756 45.4328 25.9929 47.0711 20.9607 48.1579Z" fill="#42474A"/>
<path d="M20.0186 50.6703L20.7312 50.5832C26.4869 49.4408 30.647 47.566 33.4806 45.2191C35.96 43.1655 37.4654 40.7105 38.2137 37.9763C38.9559 35.3076 38.9285 32.4909 38.4194 29.5899C37.7554 25.911 36.2803 22.1789 34.3987 18.6023C34.3695 18.5661 34.3403 18.5298 34.3757 18.5005C31.4166 12.8562 27.5967 7.68303 24.7916 4.20678L24.7332 4.13436L24.6455 4.02573C24.6163 3.98951 24.5871 3.9533 24.5516 3.98264C24.5224 3.94643 24.4932 3.91022 24.4578 3.93955C24.4432 3.92145 24.427 3.91973 24.4109 3.91801C24.3947 3.91629 24.3785 3.91457 24.3639 3.89647C24.3493 3.87836 24.3332 3.87665 24.317 3.87493C24.3008 3.87321 24.2847 3.87149 24.2701 3.85338C24.252 3.831 24.2316 3.83366 24.2033 3.83733C24.1859 3.8396 24.1655 3.84226 24.1408 3.83964L24.0115 3.82589C23.9743 3.82193 23.9585 3.82025 23.9451 3.82513C23.9351 3.82872 23.9265 3.83589 23.9114 3.84835L23.7822 3.8346C23.7644 3.84927 23.7483 3.84755 23.7321 3.84583C23.716 3.84411 23.6998 3.84239 23.6821 3.85706C23.6644 3.87173 23.6482 3.87001 23.6321 3.86829C23.6159 3.86657 23.5997 3.86486 23.582 3.87952C23.5466 3.90886 23.5466 3.90886 23.482 3.90199C23.4643 3.91665 23.4393 3.92227 23.4142 3.92789C23.3892 3.9335 23.3642 3.93912 23.3465 3.95378L23.2757 4.01246L23.1694 4.10047C19.7398 6.88056 14.9625 11.1394 11.0344 16.0844L9.13493 18.5638C6.15692 22.7822 3.96522 27.316 3.63126 31.8819C3.34249 35.625 4.3297 39.3382 7.24109 42.7265C9.59109 45.4923 13.3345 48.1107 18.5446 50.32L19.2816 50.4951L20.0186 50.6703ZM35.4965 27.359L21.7543 39.7679L22.6347 30.4601L33.0226 21.0711C34.0355 23.1319 34.8776 25.2739 35.4965 27.359ZM23.7095 6.67376C26.2162 9.85345 29.364 14.1937 31.922 18.9016L22.9633 26.9861L23.9616 16.433C24.0236 15.7775 23.556 15.1981 22.9096 15.1294C22.2632 15.0606 21.6965 15.53 21.6345 16.1855L20.6363 26.7386L13.3703 16.9287C16.7591 12.8532 20.6571 9.26225 23.7095 6.67376ZM10.998 19.9205C11.2937 19.5547 11.5895 19.1889 11.856 18.7869L20.2784 30.1764L19.4272 39.5204L8.25371 24.4287C9.04892 22.9243 9.94418 21.3974 10.998 19.9205ZM8.98288 41.2234C6.54522 38.349 5.69613 35.2463 5.92909 32.0932C6.06108 30.3527 6.48705 28.6104 7.17157 26.8957L19.0632 43.0237L18.6044 47.8743C14.1575 45.8786 11.0053 43.6565 8.98288 41.2234ZM20.9607 48.1579L21.4195 43.3074L36.095 30.0047C36.095 30.0047 36.1242 30.0409 36.0888 30.0703C36.5704 32.5711 36.6288 35.0601 35.9885 37.3424C35.3837 39.5953 34.0802 41.6415 32.0196 43.4085C29.5756 45.4328 25.9929 47.0711 20.9607 48.1579Z" stroke="#42474A"/>
<path d="M26.4534 20.5079L16.552 26.3029L13.1781 36.4633L15.1633 45.7921L20.8393 51.3103L31.4144 54.0573L40.6099 49.7721L47.1061 40.1809L53.1768 23.3655L49.4171 22.1442L38.799 20.0008L26.4534 20.5079Z" fill="#AFEB65"/>
<path d="M14.8946 47.9275L15.4171 48.428C19.9718 52.1919 24.0641 54.2479 27.6675 54.9707C30.8206 55.6032 33.6565 55.2219 36.2209 54.0736C38.7313 52.9619 40.8622 51.1565 42.7491 48.9222C45.1302 46.0744 47.0327 42.5605 48.5566 38.8282C48.5656 38.7825 48.5745 38.7368 48.6195 38.7458C51.0309 32.8637 52.5321 26.609 53.3884 22.2202L53.4062 22.1288L53.433 21.9916C53.4419 21.9459 53.4508 21.9002 53.4058 21.8912C53.4147 21.8454 53.4236 21.7997 53.3786 21.7907C53.3831 21.7678 53.374 21.7541 53.365 21.7405C53.356 21.7268 53.3469 21.7131 53.3514 21.6902C53.3558 21.6674 53.3468 21.6537 53.3378 21.64C53.3288 21.6263 53.3197 21.6126 53.3242 21.5897C53.3297 21.5615 53.3146 21.5473 53.2937 21.5276C53.2808 21.5154 53.2657 21.5012 53.2519 21.4802L53.1797 21.3707C53.1589 21.3392 53.15 21.3258 53.1377 21.3184C53.1286 21.313 53.1176 21.3108 53.0985 21.307L53.0263 21.1975C53.0038 21.1929 52.9947 21.1792 52.9857 21.1656C52.9767 21.1519 52.9676 21.1382 52.9451 21.1337C52.9226 21.1291 52.9136 21.1155 52.9045 21.1018C52.8955 21.0881 52.8865 21.0744 52.8639 21.0699C52.8449 21.0661 52.8339 21.0638 52.8248 21.0584C52.8124 21.051 52.8036 21.0377 52.7828 21.0061C52.7603 21.0016 52.74 20.9856 52.7197 20.9697C52.6994 20.9537 52.6791 20.9378 52.6566 20.9333L52.5665 20.9152L52.4313 20.8881C48.1161 19.975 41.8105 18.9478 35.5249 19.0171L32.4182 19.1066C27.2949 19.4566 22.4342 20.6194 18.7379 23.2509C15.6981 25.3965 13.4977 28.5181 12.7765 32.934C12.1709 36.518 12.5693 41.095 14.2185 46.5564L14.5565 47.242L14.8946 47.9275ZM42.5801 45.2304L24.321 42.3755L31.9838 37.1667L45.7929 39.319C44.8693 41.414 43.7744 43.4272 42.5801 45.2304ZM50.8142 22.939C49.9932 26.9073 48.6971 32.1106 46.7433 37.0868L34.8438 35.2225L43.5319 29.3168C44.0715 28.95 44.2142 28.2185 43.853 27.671C43.4917 27.1235 42.7711 26.9789 42.2314 27.3457L33.5434 33.2515L36.3758 21.3731C41.653 21.434 46.8865 22.1987 50.8142 22.939ZM32.5756 21.4184L32.5757 21.4184C33.0439 21.4174 33.5122 21.4163 33.9894 21.3695L30.6922 35.1499L23.0205 40.4044L27.3809 22.1342C29.0373 21.8013 30.7748 21.5323 32.5756 21.4184ZM15.0376 33.34C15.67 29.6189 17.4932 26.9917 20.0473 25.1762C21.4592 24.1768 23.0608 23.4054 24.8067 22.853L20.1154 42.3395L16.1222 45.054C14.7985 40.3229 14.4761 36.4578 15.0376 33.34ZM17.4137 47.0708L21.407 44.3563L40.9451 47.3727C40.9451 47.3727 40.9362 47.4184 40.8912 47.4094C39.2919 49.3689 37.4308 50.9908 35.2803 51.9372C33.1749 52.8925 30.78 53.1722 28.1135 52.6849C25.0055 52.0615 21.4632 50.3058 17.4137 47.0708Z" fill="#42474A"/>
<path d="M14.8946 47.9275L15.4171 48.428C19.9718 52.1919 24.0641 54.2479 27.6675 54.9707C30.8206 55.6032 33.6565 55.2219 36.2209 54.0736C38.7313 52.9619 40.8622 51.1565 42.7491 48.9222C45.1302 46.0744 47.0327 42.5605 48.5566 38.8282C48.5656 38.7825 48.5745 38.7368 48.6195 38.7458C51.0309 32.8637 52.5321 26.609 53.3884 22.2202L53.4062 22.1288L53.433 21.9916C53.4419 21.9459 53.4508 21.9002 53.4058 21.8912C53.4147 21.8454 53.4236 21.7997 53.3786 21.7907C53.3831 21.7678 53.374 21.7541 53.365 21.7405C53.356 21.7268 53.3469 21.7131 53.3514 21.6902C53.3558 21.6674 53.3468 21.6537 53.3378 21.64C53.3288 21.6263 53.3197 21.6126 53.3242 21.5897C53.3297 21.5615 53.3146 21.5473 53.2937 21.5276C53.2808 21.5154 53.2657 21.5012 53.2519 21.4802L53.1797 21.3707C53.1589 21.3392 53.15 21.3258 53.1377 21.3184C53.1286 21.313 53.1176 21.3108 53.0985 21.307L53.0263 21.1975C53.0038 21.1929 52.9947 21.1792 52.9857 21.1656C52.9767 21.1519 52.9676 21.1382 52.9451 21.1337C52.9226 21.1291 52.9136 21.1155 52.9045 21.1018C52.8955 21.0881 52.8865 21.0744 52.8639 21.0699C52.8449 21.0661 52.8339 21.0638 52.8248 21.0584C52.8124 21.051 52.8036 21.0377 52.7828 21.0061C52.7603 21.0016 52.74 20.9856 52.7197 20.9697C52.6994 20.9537 52.6791 20.9378 52.6566 20.9333L52.5665 20.9152L52.4313 20.8881C48.1161 19.975 41.8105 18.9478 35.5249 19.0171L32.4182 19.1066C27.2949 19.4566 22.4342 20.6194 18.7379 23.2509C15.6981 25.3965 13.4977 28.5181 12.7765 32.934C12.1709 36.518 12.5693 41.095 14.2185 46.5564L14.5565 47.242L14.8946 47.9275ZM42.5801 45.2304L24.321 42.3755L31.9838 37.1667L45.7929 39.319C44.8693 41.414 43.7744 43.4272 42.5801 45.2304ZM50.8142 22.939C49.9932 26.9073 48.6971 32.1106 46.7433 37.0868L34.8438 35.2225L43.5319 29.3168C44.0715 28.95 44.2142 28.2185 43.853 27.671C43.4917 27.1235 42.7711 26.9789 42.2314 27.3457L33.5434 33.2515L36.3758 21.3731C41.653 21.434 46.8865 22.1987 50.8142 22.939ZM32.5756 21.4184L32.5757 21.4184C33.0439 21.4174 33.5122 21.4163 33.9894 21.3695L30.6922 35.1499L23.0205 40.4044L27.3809 22.1342C29.0373 21.8013 30.7748 21.5323 32.5756 21.4184ZM15.0376 33.34C15.67 29.6189 17.4932 26.9917 20.0473 25.1762C21.4592 24.1768 23.0608 23.4054 24.8067 22.853L20.1154 42.3395L16.1222 45.054C14.7985 40.3229 14.4761 36.4578 15.0376 33.34ZM17.4137 47.0708L21.407 44.3563L40.9451 47.3727C40.9451 47.3727 40.9362 47.4184 40.8912 47.4094C39.2919 49.3689 37.4308 50.9908 35.2803 51.9372C33.1749 52.8925 30.78 53.1722 28.1135 52.6849C25.0055 52.0615 21.4632 50.3058 17.4137 47.0708Z" stroke="#97D64A"/>
</g>
<defs>
<clipPath id="clip0">
<rect width="55.4417" height="59.6419" fill="white" transform="translate(0.402344 0.654785)"/>
</clipPath>
</defs>
</svg>
