<svg width="16" height="13" viewBox="0 0 16 13" fill="none" xmlns="http://www.w3.org/2000/svg">
<path d="M14.4466 0.189941H1.53618C1.29454 0.189941 1.07016 0.241721 0.863037 0.345281L7.99141 6.12737L15.1198 0.345281C14.9127 0.241721 14.7055 0.189941 14.4466 0.189941Z" fill="#616161"/>
<path d="M8.47465 7.71533C8.33657 7.83615 8.16397 7.88793 7.99137 7.88793C7.81877 7.88793 7.64617 7.83615 7.50809 7.71533L0 1.62256C0 1.65708 0 1.67434 0 1.72612V11.0983C0 11.944 0.690399 12.6344 1.53614 12.6344H14.4639C15.3096 12.6344 16 11.944 16 11.0983V1.72612C16 1.6916 16 1.67434 16 1.62256L8.47465 7.71533Z" fill="#616161"/>
</svg>
