<svg width="21" height="21" viewBox="0 0 21 21" fill="none" xmlns="http://www.w3.org/2000/svg">
<g clip-path="url(#clip0)">
<path d="M18.8799 2.4502H2.74181C2.43976 2.4502 2.15929 2.51492 1.90039 2.64437L10.8109 9.87199L19.7213 2.64437C19.4624 2.51492 19.2035 2.4502 18.8799 2.4502Z" fill="white"/>
<path d="M11.4146 11.8572C11.242 12.0082 11.0263 12.0729 10.8105 12.0729C10.5948 12.0729 10.379 12.0082 10.2064 11.8572L0.821289 4.24121C0.821289 4.28436 0.821289 4.30594 0.821289 4.37066V16.0859C0.821289 17.143 1.68429 18.006 2.74146 18.006H18.9011C19.9583 18.006 20.8213 17.143 20.8213 16.0859V4.37066C20.8213 4.32751 20.8213 4.30594 20.8213 4.24121L11.4146 11.8572Z" fill="white"/>
</g>
<defs>
<clipPath id="clip0">
<rect width="20" height="20" fill="white" transform="translate(0.821289 0.228027)"/>
</clipPath>
</defs>
</svg>
