<svg width="30" height="33" viewBox="0 0 30 33" fill="none" xmlns="http://www.w3.org/2000/svg">
<g clip-path="url(#clip0)">
<path d="M10.5061 27.6141L10.8877 27.5675C13.9697 26.9562 16.1971 25.9514 17.7139 24.693C19.0412 23.5918 19.8467 22.2749 20.2467 20.8081C20.6434 19.3764 20.628 17.865 20.3546 16.3083C19.998 14.3342 19.207 12.3313 18.1984 10.4116C18.1827 10.3922 18.167 10.3728 18.186 10.357C16.5997 7.32764 14.5527 4.55086 13.0495 2.68484L13.0182 2.64596L12.9712 2.58765C12.9555 2.56821 12.9399 2.54877 12.9209 2.5645C12.9053 2.54506 12.8896 2.52563 12.8707 2.54136C12.8628 2.53164 12.8542 2.53071 12.8455 2.52979C12.8369 2.52886 12.8282 2.52793 12.8204 2.51821C12.8125 2.50849 12.8039 2.50757 12.7952 2.50664C12.7866 2.50571 12.7779 2.50479 12.7701 2.49507C12.7604 2.48306 12.7495 2.48448 12.7344 2.48644C12.725 2.48765 12.7141 2.48907 12.7009 2.48766L12.6316 2.48024C12.6117 2.47811 12.6032 2.4772 12.596 2.47981C12.5907 2.48174 12.5861 2.48559 12.578 2.49227L12.5088 2.48485C12.4993 2.49272 12.4907 2.49179 12.482 2.49086C12.4734 2.48994 12.4647 2.48901 12.4552 2.49688C12.4457 2.50474 12.4371 2.50381 12.4284 2.50289C12.4198 2.50196 12.4111 2.50103 12.4016 2.5089C12.3936 2.51558 12.389 2.51942 12.3836 2.52135C12.3764 2.52396 12.368 2.52306 12.3481 2.52092C12.3386 2.52879 12.3252 2.5318 12.3118 2.5348C12.2984 2.53781 12.285 2.54081 12.2755 2.54868L12.2376 2.58014L12.1807 2.62733C10.3448 4.11806 7.78758 6.40184 5.68527 9.05403L4.66874 10.3838C3.07506 12.6465 1.90257 15.0785 1.72497 17.5283C1.57134 19.5366 2.10104 21.5293 3.6611 23.3481C4.92036 24.8328 6.92578 26.2388 9.71659 27.4257L10.1113 27.5199L10.5061 27.6141ZM18.7886 15.1105L11.4326 21.7647L11.9016 16.7708L17.4621 11.7359C18.0051 12.842 18.4566 13.9915 18.7886 15.1105ZM12.4707 4.00822C13.8139 5.71503 15.5009 8.04475 16.8721 10.5716L12.0766 14.9069L12.6083 9.24472C12.6413 8.89304 12.3908 8.58203 12.0446 8.54497C11.6984 8.5079 11.3951 8.75959 11.362 9.11128L10.8303 14.7734L6.93645 9.5077C8.75019 7.32192 10.8367 5.39624 12.4707 4.00822ZM5.66682 11.1123C5.82511 10.9162 5.9834 10.72 6.12603 10.5043L10.6396 16.6179L10.1863 21.6313L4.19841 13.5305C4.62386 12.7235 5.10289 11.9045 5.66682 11.1123ZM4.59348 22.5421C3.28725 20.9991 2.83169 19.3341 2.95559 17.6423C3.0258 16.7085 3.25344 15.7737 3.61956 14.8538L9.99232 23.511L9.74793 26.1134C7.36595 25.0414 5.6772 23.8482 4.59348 22.5421ZM11.0099 26.2663L11.2543 23.6638L19.1099 16.5303C19.1099 16.5303 19.1255 16.5497 19.1066 16.5654C19.3652 17.9074 19.3971 19.2429 19.0549 20.4673C18.7316 21.676 18.034 22.7735 16.931 23.7211C15.6227 24.8065 13.7045 25.6845 11.0099 26.2663Z" fill="#97D64A"/>
<path d="M10.5061 27.6141L10.8877 27.5675C13.9697 26.9562 16.1971 25.9514 17.7139 24.693C19.0412 23.5918 19.8467 22.2749 20.2467 20.8081C20.6434 19.3764 20.628 17.865 20.3546 16.3083C19.998 14.3342 19.207 12.3313 18.1984 10.4116C18.1827 10.3922 18.167 10.3728 18.186 10.357C16.5997 7.32764 14.5527 4.55086 13.0495 2.68484L13.0182 2.64596L12.9712 2.58765C12.9555 2.56821 12.9399 2.54877 12.9209 2.5645C12.9053 2.54506 12.8896 2.52563 12.8707 2.54136C12.8628 2.53164 12.8542 2.53071 12.8455 2.52979C12.8369 2.52886 12.8282 2.52793 12.8204 2.51821C12.8125 2.50849 12.8039 2.50757 12.7952 2.50664C12.7866 2.50571 12.7779 2.50479 12.7701 2.49507C12.7604 2.48306 12.7495 2.48448 12.7344 2.48644C12.725 2.48765 12.7141 2.48907 12.7009 2.48766L12.6316 2.48024C12.6117 2.47811 12.6032 2.4772 12.596 2.47981C12.5907 2.48174 12.5861 2.48559 12.578 2.49227L12.5088 2.48485C12.4993 2.49272 12.4907 2.49179 12.482 2.49086C12.4734 2.48994 12.4647 2.48901 12.4552 2.49688C12.4457 2.50474 12.4371 2.50381 12.4284 2.50289C12.4198 2.50196 12.4111 2.50103 12.4016 2.5089C12.3936 2.51558 12.389 2.51942 12.3836 2.52135C12.3764 2.52396 12.368 2.52306 12.3481 2.52092C12.3386 2.52879 12.3252 2.5318 12.3118 2.5348C12.2984 2.53781 12.285 2.54081 12.2755 2.54868L12.2376 2.58014L12.1807 2.62733C10.3448 4.11806 7.78758 6.40184 5.68527 9.05403L4.66874 10.3838C3.07506 12.6465 1.90257 15.0785 1.72497 17.5283C1.57134 19.5366 2.10104 21.5293 3.6611 23.3481C4.92036 24.8328 6.92578 26.2388 9.71659 27.4257L10.1113 27.5199L10.5061 27.6141ZM18.7886 15.1105L11.4326 21.7647L11.9016 16.7708L17.4621 11.7359C18.0051 12.842 18.4566 13.9915 18.7886 15.1105ZM12.4707 4.00822C13.8139 5.71503 15.5009 8.04475 16.8721 10.5716L12.0766 14.9069L12.6083 9.24472C12.6413 8.89304 12.3908 8.58203 12.0446 8.54497C11.6984 8.5079 11.3951 8.75959 11.362 9.11128L10.8303 14.7734L6.93645 9.5077C8.75019 7.32192 10.8367 5.39624 12.4707 4.00822ZM5.66682 11.1123C5.82511 10.9162 5.9834 10.72 6.12603 10.5043L10.6396 16.6179L10.1863 21.6313L4.19841 13.5305C4.62386 12.7235 5.10289 11.9045 5.66682 11.1123ZM4.59348 22.5421C3.28725 20.9991 2.83169 19.3341 2.95559 17.6423C3.0258 16.7085 3.25344 15.7737 3.61956 14.8538L9.99232 23.511L9.74793 26.1134C7.36595 25.0414 5.6772 23.8482 4.59348 22.5421ZM11.0099 26.2663L11.2543 23.6638L19.1099 16.5303C19.1099 16.5303 19.1255 16.5497 19.1066 16.5654C19.3652 17.9074 19.3971 19.2429 19.0549 20.4673C18.7316 21.676 18.034 22.7735 16.931 23.7211C15.6227 24.8065 13.7045 25.6845 11.0099 26.2663Z" stroke="#97D64A"/>
<path d="M13.768 11.5055L8.53378 14.7291L6.84527 20.2185L8.0166 25.1995L11.1198 28.0934L16.814 29.4439L21.6878 27.0383L25.0547 21.8179L28.1099 12.7273L26.0826 12.1159L20.3724 11.0898L13.768 11.5055Z" fill="#E9FBD4"/>
<path d="M7.76508 26.1428L8.04489 26.4113C10.4842 28.4308 12.6759 29.5339 14.6058 29.9217C16.2944 30.261 17.8133 30.0564 19.1866 29.4403C20.5311 28.8439 21.6723 27.8752 22.6829 26.6764C23.9581 25.1485 24.977 23.2632 25.7932 21.2606C25.798 21.2361 25.8027 21.2116 25.8269 21.2164C27.1183 18.0605 27.9223 14.7046 28.3809 12.3498L28.3904 12.3008L28.4048 12.2272C28.4095 12.2027 28.4143 12.1781 28.3902 12.1733C28.395 12.1488 28.3998 12.1242 28.3756 12.1194C28.378 12.1071 28.3732 12.0998 28.3683 12.0924C28.3635 12.0851 28.3587 12.0778 28.3611 12.0655C28.3635 12.0532 28.3586 12.0459 28.3538 12.0385C28.3489 12.0312 28.3441 12.0238 28.3465 12.0116C28.3494 11.9964 28.3414 11.9888 28.3302 11.9782C28.3233 11.9717 28.3152 11.9641 28.3078 11.9528L28.2691 11.8941C28.258 11.8771 28.2532 11.87 28.2466 11.866C28.2417 11.8631 28.2359 11.8619 28.2256 11.8599L28.1869 11.8011C28.1749 11.7987 28.17 11.7913 28.1652 11.784C28.1604 11.7766 28.1555 11.7693 28.1435 11.7669C28.1314 11.7645 28.1266 11.7571 28.1217 11.7498C28.1169 11.7424 28.1121 11.7351 28.1 11.7327C28.0898 11.7306 28.0839 11.7294 28.079 11.7265C28.0724 11.7225 28.0677 11.7154 28.0565 11.6984C28.0445 11.696 28.0336 11.6875 28.0227 11.6789C28.0119 11.6703 28.001 11.6618 27.9889 11.6594L27.9407 11.6497L27.8683 11.6351C25.5572 11.1452 22.1802 10.5941 18.8139 10.6313L17.1501 10.6793C14.4062 10.8671 11.803 11.491 9.82341 12.9029C8.19542 14.0541 7.01694 15.7289 6.63072 18.0982C6.30635 20.0211 6.51973 22.4769 7.40298 25.4071L7.58403 25.7749L7.76508 26.1428ZM22.5924 24.6956L12.8135 23.1639L16.9174 20.3692L24.313 21.524C23.8184 22.648 23.232 23.7281 22.5924 24.6956ZM27.0023 12.7355C26.5625 14.8647 25.8684 17.6564 24.822 20.3263L18.4491 19.3261L23.1021 16.1574C23.3911 15.9606 23.4675 15.5681 23.2741 15.2744C23.0806 14.9806 22.6946 14.9031 22.4056 15.0999L17.7526 18.2685L19.2696 11.8953C22.0959 11.928 24.8987 12.3383 27.0023 12.7355ZM17.2344 11.9197C17.4852 11.9191 17.7359 11.9185 17.9915 11.8934L16.2257 19.2871L12.117 22.1063L14.4523 12.3037C15.3394 12.1251 16.2699 11.9808 17.2344 11.9197ZM7.84167 18.316C8.18036 16.3195 9.15678 14.9099 10.5247 13.9359C11.2809 13.3996 12.1386 12.9857 13.0736 12.6894L10.5612 23.1446L8.42252 24.601C7.71363 22.0626 7.54095 19.9888 7.84167 18.316ZM9.11422 25.6831L11.2529 24.2267L21.7168 25.8451C21.7168 25.8451 21.712 25.8696 21.6879 25.8648C20.8313 26.9161 19.8346 27.7863 18.6829 28.2941C17.5553 28.8066 16.2727 28.9567 14.8446 28.6952C13.1801 28.3608 11.2829 27.4188 9.11422 25.6831Z" fill="#97D64A"/>
<path d="M7.76508 26.1428L8.04489 26.4113C10.4842 28.4308 12.6759 29.5339 14.6058 29.9217C16.2944 30.261 17.8133 30.0564 19.1866 29.4403C20.5311 28.8439 21.6723 27.8752 22.6829 26.6764C23.9581 25.1485 24.977 23.2632 25.7932 21.2606C25.798 21.2361 25.8027 21.2116 25.8269 21.2164C27.1183 18.0605 27.9223 14.7046 28.3809 12.3498L28.3904 12.3008L28.4048 12.2272C28.4095 12.2027 28.4143 12.1781 28.3902 12.1733C28.395 12.1488 28.3998 12.1242 28.3756 12.1194C28.378 12.1071 28.3732 12.0998 28.3683 12.0924C28.3635 12.0851 28.3587 12.0778 28.3611 12.0655C28.3635 12.0532 28.3586 12.0459 28.3538 12.0385C28.3489 12.0312 28.3441 12.0238 28.3465 12.0116C28.3494 11.9964 28.3414 11.9888 28.3302 11.9782C28.3233 11.9717 28.3152 11.9641 28.3078 11.9528L28.2691 11.8941C28.258 11.8771 28.2532 11.87 28.2466 11.866C28.2417 11.8631 28.2359 11.8619 28.2256 11.8599L28.1869 11.8011C28.1749 11.7987 28.17 11.7913 28.1652 11.784C28.1604 11.7766 28.1555 11.7693 28.1435 11.7669C28.1314 11.7645 28.1266 11.7571 28.1217 11.7498C28.1169 11.7424 28.1121 11.7351 28.1 11.7327C28.0898 11.7306 28.0839 11.7294 28.079 11.7265C28.0724 11.7225 28.0677 11.7154 28.0565 11.6984C28.0445 11.696 28.0336 11.6875 28.0227 11.6789C28.0119 11.6703 28.001 11.6618 27.9889 11.6594L27.9407 11.6497L27.8683 11.6351C25.5572 11.1452 22.1802 10.5941 18.8139 10.6313L17.1501 10.6793C14.4062 10.8671 11.803 11.491 9.82341 12.9029C8.19542 14.0541 7.01694 15.7289 6.63072 18.0982C6.30635 20.0211 6.51973 22.4769 7.40298 25.4071L7.58403 25.7749L7.76508 26.1428ZM22.5924 24.6956L12.8135 23.1639L16.9174 20.3692L24.313 21.524C23.8184 22.648 23.232 23.7281 22.5924 24.6956ZM27.0023 12.7355C26.5625 14.8647 25.8684 17.6564 24.822 20.3263L18.4491 19.3261L23.1021 16.1574C23.3911 15.9606 23.4675 15.5681 23.2741 15.2744C23.0806 14.9806 22.6946 14.9031 22.4056 15.0999L17.7526 18.2685L19.2696 11.8953C22.0959 11.928 24.8987 12.3383 27.0023 12.7355ZM17.2344 11.9197C17.4852 11.9191 17.7359 11.9185 17.9915 11.8934L16.2257 19.2871L12.117 22.1063L14.4523 12.3037C15.3394 12.1251 16.2699 11.9808 17.2344 11.9197ZM7.84167 18.316C8.18036 16.3195 9.15678 14.9099 10.5247 13.9359C11.2809 13.3996 12.1386 12.9857 13.0736 12.6894L10.5612 23.1446L8.42252 24.601C7.71363 22.0626 7.54095 19.9888 7.84167 18.316ZM9.11422 25.6831L11.2529 24.2267L21.7168 25.8451C21.7168 25.8451 21.712 25.8696 21.6879 25.8648C20.8313 26.9161 19.8346 27.7863 18.6829 28.2941C17.5553 28.8066 16.2727 28.9567 14.8446 28.6952C13.1801 28.3608 11.2829 27.4188 9.11422 25.6831Z" stroke="#97D64A"/>
</g>
<defs>
<clipPath id="clip0">
<rect width="29.6925" height="32" fill="white" transform="translate(0 0.779297)"/>
</clipPath>
</defs>
</svg>
