<svg width="16" height="13" viewBox="0 0 16 13" fill="none" xmlns="http://www.w3.org/2000/svg">
<path d="M15.8477 1.99719C15.8477 1.17219 15.1727 0.497192 14.3477 0.497192H2.34766C1.52266 0.497192 0.847656 1.17219 0.847656 1.99719V10.9972C0.847656 11.8222 1.52266 12.4972 2.34766 12.4972H14.3477C15.1727 12.4972 15.8477 11.8222 15.8477 10.9972V1.99719ZM14.3477 1.99719L8.86196 5.28693C8.54537 5.47679 8.14994 5.47679 7.83335 5.28693L2.34766 1.99719H14.3477ZM14.3477 9.99719C14.3477 10.5495 13.8999 10.9972 13.3477 10.9972H3.34766C2.79537 10.9972 2.34766 10.5495 2.34766 9.99719V3.68409L7.83705 6.94397C8.1518 7.13088 8.54352 7.13088 8.85826 6.94397L14.3477 3.68409V9.99719Z" fill="#7DA152"/>
</svg>
