<svg width="14" height="14" viewBox="0 0 14 14" fill="none" xmlns="http://www.w3.org/2000/svg">
<path d="M7.00163 0H6.99837C3.41444 0 0.5 2.91525 0.5 6.5C0.5 7.92188 0.95825 9.23975 1.73744 10.3098L0.927375 12.7246L3.42581 11.9259C4.45362 12.6068 5.67969 13 7.00163 13C10.5856 13 13.5 10.0839 13.5 6.5C13.5 2.91606 10.5856 0 7.00163 0ZM10.7838 9.17881C10.627 9.62162 10.0046 9.98887 9.50819 10.0961C9.16856 10.1684 8.72494 10.2261 7.23156 9.607C5.32137 8.81563 4.09125 6.87456 3.99538 6.74862C3.90356 6.62269 3.2235 5.72081 3.2235 4.78806C3.2235 3.85531 3.69719 3.40113 3.88812 3.20613C4.04494 3.04606 4.30412 2.97294 4.55275 2.97294C4.63319 2.97294 4.7055 2.977 4.7705 2.98025C4.96144 2.98837 5.05731 2.99975 5.18325 3.30119C5.34006 3.679 5.72194 4.61175 5.76744 4.70762C5.81375 4.8035 5.86006 4.9335 5.79506 5.05944C5.73413 5.18944 5.6805 5.24712 5.58462 5.35763C5.48875 5.46812 5.39775 5.55263 5.30188 5.67125C5.21412 5.77444 5.115 5.88494 5.2255 6.07588C5.336 6.26275 5.71788 6.88594 6.28012 7.38644C7.00569 8.03237 7.59394 8.23875 7.80437 8.3265C7.96119 8.3915 8.14806 8.37606 8.26262 8.25419C8.40806 8.09737 8.58762 7.83738 8.77044 7.58144C8.90044 7.39781 9.06456 7.37506 9.23681 7.44006C9.41231 7.501 10.341 7.96006 10.5319 8.05512C10.7229 8.151 10.8488 8.1965 10.8951 8.27694C10.9406 8.35738 10.9406 8.73519 10.7838 9.17881Z" fill="#7DA152"/>
</svg>
