<svg width="19" height="19" viewBox="0 0 19 19" fill="none" xmlns="http://www.w3.org/2000/svg">
<g clip-path="url(#clip0)">
<path d="M14.6977 5.11877V5.16877H14.7477H15.6477C16.3505 5.16877 17.0245 5.44796 17.5215 5.94494C18.0185 6.44191 18.2977 7.11594 18.2977 7.81877V15.0188C18.2977 15.7216 18.0185 16.3956 17.5215 16.8926C17.0245 17.3896 16.3505 17.6688 15.6477 17.6688H3.04766C2.34483 17.6688 1.67079 17.3896 1.17382 16.8926C0.676852 16.3956 0.397656 15.7216 0.397656 15.0188V4.21877C0.397656 3.51594 0.676852 2.84191 1.17382 2.34494C1.67079 1.84796 2.34483 1.56877 3.04766 1.56877H12.0477C12.7505 1.56877 13.4245 1.84796 13.9215 2.34494C14.4185 2.84191 14.6977 3.51594 14.6977 4.21877V5.11877ZM12.9477 5.16877H12.9977V5.11877V4.21877C12.9977 3.96681 12.8976 3.72518 12.7194 3.54702C12.5412 3.36886 12.2996 3.26877 12.0477 3.26877H3.04766C2.7957 3.26877 2.55406 3.36886 2.37591 3.54702C2.19775 3.72518 2.09766 3.96681 2.09766 4.21877C2.09766 4.47072 2.19775 4.71236 2.37591 4.89052C2.55406 5.06868 2.7957 5.16877 3.04766 5.16877H12.9477ZM16.5477 12.3688H16.5977V12.3188V10.5188V10.4688H16.5477H15.6477C15.3957 10.4688 15.1541 10.5689 14.9759 10.747C14.7977 10.9252 14.6977 11.1668 14.6977 11.4188C14.6977 11.6707 14.7977 11.9124 14.9759 12.0905C15.1541 12.2687 15.3957 12.3688 15.6477 12.3688H16.5477ZM16.5477 8.76877H16.5977V8.71877V7.81877C16.5977 7.56681 16.4976 7.32518 16.3194 7.14702C16.1412 6.96886 15.8996 6.86877 15.6477 6.86877H3.04766L3.04758 6.86877C2.74675 6.86922 2.44804 6.81843 2.16425 6.7186L2.09766 6.69518V6.76577V15.0188C2.09766 15.2707 2.19775 15.5124 2.37591 15.6905C2.55406 15.8687 2.7957 15.9688 3.04766 15.9688H15.6477C15.8996 15.9688 16.1412 15.8687 16.3194 15.6905C16.4976 15.5124 16.5977 15.2707 16.5977 15.0188V14.1188V14.0688H16.5477H15.6477C14.9448 14.0688 14.2708 13.7896 13.7738 13.2926C13.2769 12.7956 12.9977 12.1216 12.9977 11.4188C12.9977 10.7159 13.2769 10.0419 13.7738 9.54494C14.2708 9.04796 14.9448 8.76877 15.6477 8.76877H16.5477Z" fill="#7DA152" stroke="#E9E9E9" stroke-width="0.1"/>
</g>
<defs>
<clipPath id="clip0">
<rect width="18" height="18" fill="white" transform="translate(0.347656 0.618652)"/>
</clipPath>
</defs>
</svg>
