<svg width="10" height="13" viewBox="0 0 10 13" fill="none" xmlns="http://www.w3.org/2000/svg">
<path fill-rule="evenodd" clip-rule="evenodd" d="M0.0415039 5.51871C0.0415039 2.83546 2.28377 0.666687 4.99601 0.666687C7.71591 0.666687 9.95817 2.83546 9.95817 5.51871C9.95817 6.87084 9.46643 8.12614 8.65705 9.19011C7.76414 10.3637 6.6636 11.3863 5.42482 12.1889C5.1413 12.3744 4.88543 12.3884 4.57427 12.1889C3.32843 11.3863 2.22789 10.3637 1.34263 9.19011C0.532661 8.12614 0.0415039 6.87084 0.0415039 5.51871ZM3.36314 5.66977C3.36314 6.56866 4.09664 7.27564 4.99602 7.27564C5.89599 7.27564 6.63654 6.56866 6.63654 5.66977C6.63654 4.77788 5.89599 4.03649 4.99602 4.03649C4.09664 4.03649 3.36314 4.77788 3.36314 5.66977Z" fill="white"/>
</svg>
