<svg width="14" height="14" viewBox="0 0 14 14" fill="none" xmlns="http://www.w3.org/2000/svg">
<path d="M5.43806 12.4804V10.6915C5.43805 10.2365 5.80901 9.86677 6.26861 9.86372H7.95216C8.41395 9.86372 8.78832 10.2343 8.78832 10.6915V10.6915V12.486C8.78821 12.8723 9.09967 13.1881 9.48979 13.1971H10.6122C11.731 13.1971 12.638 12.2992 12.638 11.1915V11.1915V6.10253C12.632 5.66677 12.4254 5.25758 12.0768 4.99139L8.23836 1.93022C7.5659 1.3972 6.60997 1.3972 5.93751 1.93022L2.11587 4.99695C1.76601 5.26205 1.559 5.67193 1.55469 6.10808V11.1915C1.55469 12.2992 2.4617 13.1971 3.58055 13.1971H4.70292C5.10273 13.1971 5.42684 12.8763 5.42684 12.4804V12.4804" stroke="#ACACAC" stroke-width="1.3" stroke-linecap="round" stroke-linejoin="round"/>
</svg>
