<svg width="17" height="17" viewBox="0 0 17 17" fill="none" xmlns="http://www.w3.org/2000/svg">
<rect x="0.827637" y="0.0742188" width="16" height="16" rx="4" fill="white"/>
<path d="M8.83168 3.71338C6.421 3.71338 4.4668 5.66757 4.4668 8.07821C4.4668 10.4889 6.421 12.4431 8.83168 12.4431C11.2423 12.4431 13.1965 10.4889 13.1965 8.07821C13.1965 5.66757 11.2423 3.71338 8.83168 3.71338ZM8.83168 10.9116C7.26684 10.9116 5.99833 9.64304 5.99833 8.07821C5.99833 6.51342 7.26684 5.2449 8.83168 5.2449C10.3965 5.2449 11.665 6.51342 11.665 8.07821C11.665 9.64304 10.3965 10.9116 8.83168 10.9116Z" fill="#69747C"/>
<path d="M14.3886 3.53808C14.3886 4.10139 13.932 4.55807 13.3686 4.55807C12.8053 4.55807 12.3486 4.10139 12.3486 3.53808C12.3486 2.97475 12.8053 2.51807 13.3686 2.51807C13.932 2.51807 14.3886 2.97475 14.3886 3.53808Z" fill="#69747C"/>
</svg>
