<svg width="25" height="21" viewBox="0 0 25 21" fill="none" xmlns="http://www.w3.org/2000/svg">
<path d="M21.3401 3.12477C20.8294 2.61377 20.2229 2.20841 19.5555 1.93185C18.888 1.65529 18.1726 1.51294 17.4501 1.51294C16.7276 1.51294 16.0122 1.65529 15.3448 1.93185C14.6773 2.20841 14.0709 2.61377 13.5601 3.12477L12.5001 4.18477L11.4401 3.12477C10.4084 2.09307 9.00915 1.51347 7.55012 1.51347C6.09109 1.51347 4.69181 2.09307 3.66012 3.12477C2.62843 4.15646 2.04883 5.55573 2.04883 7.01476C2.04883 8.4738 2.62843 9.87307 3.66012 10.9048L4.72012 11.9648L12.5001 19.7448L20.2801 11.9648L21.3401 10.9048C21.8511 10.394 22.2565 9.78758 22.533 9.12012C22.8096 8.45266 22.9519 7.73725 22.9519 7.01476C22.9519 6.29228 22.8096 5.57687 22.533 4.90941C22.2565 4.24195 21.8511 3.63552 21.3401 3.12477V3.12477Z" stroke="#ACACAC" stroke-width="2.3" stroke-linecap="round" stroke-linejoin="round"/>
</svg>
