<svg width="131" height="54" viewBox="0 0 131 54" fill="none" xmlns="http://www.w3.org/2000/svg">
<g clip-path="url(#clip0)">
<path d="M18.2051 45.099L18.8407 45.0216C23.9742 44.0033 27.6842 42.3297 30.2107 40.2336C32.4214 38.3995 33.7631 36.206 34.4293 33.7628C35.0901 31.3781 35.0644 28.8608 34.609 26.2678C34.015 22.9797 32.6975 19.6436 31.0176 16.4462C30.9915 16.4138 30.9654 16.3814 30.997 16.3552C28.3549 11.3094 24.9452 6.6843 22.4415 3.57621L22.3893 3.51146L22.3111 3.41433C22.285 3.38195 22.2589 3.34958 22.2273 3.37578C22.2012 3.3434 22.1752 3.31103 22.1436 3.33723C22.1305 3.32104 22.1161 3.3195 22.1017 3.31795C22.0873 3.31641 22.0729 3.31487 22.0598 3.29868C22.0468 3.28249 22.0324 3.28095 22.018 3.2794C22.0036 3.27786 21.9891 3.27632 21.9761 3.26013C21.96 3.24012 21.9418 3.24248 21.9166 3.24575C21.901 3.24777 21.8828 3.25014 21.8608 3.24778L21.7455 3.23543C21.7123 3.23188 21.6982 3.23037 21.6862 3.23472C21.6773 3.23793 21.6696 3.24433 21.6562 3.25546L21.5409 3.24311C21.5251 3.25621 21.5107 3.25467 21.4963 3.25312C21.4818 3.25158 21.4674 3.25004 21.4516 3.26314C21.4359 3.27624 21.4214 3.27469 21.407 3.27315C21.3926 3.27161 21.3782 3.27006 21.3624 3.28316C21.349 3.29429 21.3413 3.30069 21.3324 3.3039C21.3204 3.30825 21.3063 3.30674 21.2732 3.30319C21.2574 3.31629 21.2351 3.3213 21.2127 3.32631C21.1904 3.33131 21.1681 3.33632 21.1523 3.34942L21.0892 3.40183L20.9944 3.48043C17.9365 5.96342 13.6771 9.76735 10.1754 14.1849L8.48225 16.3999C5.82778 20.1686 3.87484 24.2195 3.57902 28.2999C3.32314 31.645 4.20542 34.964 6.80391 37.9935C8.90136 40.4665 12.2416 42.8084 16.8901 44.7853L17.5476 44.9422L18.2051 45.099ZM32.0007 24.2727L19.7483 35.3562L20.5294 27.0382L29.7912 18.652C30.6957 20.4942 31.4477 22.4089 32.0007 24.2727ZM21.4773 5.78048C23.7148 8.62339 26.5246 12.5038 28.8085 16.7126L20.821 23.9336L21.7066 14.5025C21.7616 13.9168 21.3443 13.3987 20.7677 13.337C20.1911 13.2753 19.6858 13.6945 19.6308 14.2803L18.7452 23.7113L12.2594 14.9406C15.2804 11.2999 18.7558 8.0924 21.4773 5.78048ZM10.1447 17.6133C10.4083 17.2865 10.672 16.9598 10.9096 16.6006L18.4275 26.7835L17.6725 35.134L7.69886 21.641C8.4075 20.2969 9.20539 18.9327 10.1447 17.6133ZM8.3569 36.6511C6.1812 34.081 5.4224 31.3077 5.62878 28.4898C5.74572 26.9344 6.1249 25.3775 6.73472 23.8453L17.3494 38.2648L16.9423 42.5995C12.9748 40.8139 10.162 38.8264 8.3569 36.6511ZM19.0442 42.8542L19.4513 38.5194L32.5358 26.6375C32.5358 26.6375 32.5619 26.6699 32.5303 26.6961C32.9611 28.9314 33.0142 31.1558 32.4442 33.1952C31.9057 35.2084 30.7439 37.0365 28.9066 38.6148C26.7275 40.4227 23.5325 41.8852 19.0442 42.8542Z" fill="#97D64A"/>
<path d="M18.2051 45.099L18.8407 45.0216C23.9742 44.0033 27.6842 42.3297 30.2107 40.2336C32.4214 38.3995 33.7631 36.206 34.4293 33.7628C35.0901 31.3781 35.0644 28.8608 34.609 26.2678C34.015 22.9797 32.6975 19.6436 31.0176 16.4462C30.9915 16.4138 30.9654 16.3814 30.997 16.3552C28.3549 11.3094 24.9452 6.6843 22.4415 3.57621L22.3893 3.51146L22.3111 3.41433C22.285 3.38195 22.2589 3.34958 22.2273 3.37578C22.2012 3.3434 22.1752 3.31103 22.1436 3.33723C22.1305 3.32104 22.1161 3.3195 22.1017 3.31795C22.0873 3.31641 22.0729 3.31487 22.0598 3.29868C22.0468 3.28249 22.0324 3.28095 22.018 3.2794C22.0036 3.27786 21.9891 3.27632 21.9761 3.26013C21.96 3.24012 21.9418 3.24248 21.9166 3.24575C21.901 3.24777 21.8828 3.25014 21.8608 3.24778L21.7455 3.23543C21.7123 3.23188 21.6982 3.23037 21.6862 3.23472C21.6773 3.23793 21.6696 3.24433 21.6562 3.25546L21.5409 3.24311C21.5251 3.25621 21.5107 3.25467 21.4963 3.25312C21.4818 3.25158 21.4674 3.25004 21.4516 3.26314C21.4359 3.27624 21.4214 3.27469 21.407 3.27315C21.3926 3.27161 21.3782 3.27006 21.3624 3.28316C21.349 3.29429 21.3413 3.30069 21.3324 3.3039C21.3204 3.30825 21.3063 3.30674 21.2732 3.30319C21.2574 3.31629 21.2351 3.3213 21.2127 3.32631C21.1904 3.33131 21.1681 3.33632 21.1523 3.34942L21.0892 3.40183L20.9944 3.48043C17.9365 5.96342 13.6771 9.76735 10.1754 14.1849L8.48225 16.3999C5.82778 20.1686 3.87484 24.2195 3.57902 28.2999C3.32314 31.645 4.20542 34.964 6.80391 37.9935C8.90136 40.4665 12.2416 42.8084 16.8901 44.7853L17.5476 44.9422L18.2051 45.099ZM32.0007 24.2727L19.7483 35.3562L20.5294 27.0382L29.7912 18.652C30.6957 20.4942 31.4477 22.4089 32.0007 24.2727ZM21.4773 5.78048C23.7148 8.62339 26.5246 12.5038 28.8085 16.7126L20.821 23.9336L21.7066 14.5025C21.7616 13.9168 21.3443 13.3987 20.7677 13.337C20.1911 13.2753 19.6858 13.6945 19.6308 14.2803L18.7452 23.7113L12.2594 14.9406C15.2804 11.2999 18.7558 8.0924 21.4773 5.78048ZM10.1447 17.6133C10.4083 17.2865 10.672 16.9598 10.9096 16.6006L18.4275 26.7835L17.6725 35.134L7.69886 21.641C8.4075 20.2969 9.20539 18.9327 10.1447 17.6133ZM8.3569 36.6511C6.1812 34.081 5.4224 31.3077 5.62878 28.4898C5.74572 26.9344 6.1249 25.3775 6.73472 23.8453L17.3494 38.2648L16.9423 42.5995C12.9748 40.8139 10.162 38.8264 8.3569 36.6511ZM19.0442 42.8542L19.4513 38.5194L32.5358 26.6375C32.5358 26.6375 32.5619 26.6699 32.5303 26.6961C32.9611 28.9314 33.0142 31.1558 32.4442 33.1952C31.9057 35.2084 30.7439 37.0365 28.9066 38.6148C26.7275 40.4227 23.5325 41.8852 19.0442 42.8542Z" stroke="#97D64A"/>
<path d="M23.6171 18.2681L14.8988 23.6376L12.0864 32.7809L14.0374 41.0773L19.2062 45.8975L28.6906 48.1469L36.8085 44.1401L42.4166 35.4448L47.5053 20.3033L44.1286 19.285L34.6176 17.5758L23.6171 18.2681Z" fill="#E9FBD4"/>
<path d="M13.6222 42.6479L14.0882 43.0952C18.1513 46.4589 21.8018 48.2963 25.0162 48.9422C27.8289 49.5074 30.3587 49.1667 32.6462 48.1404C34.8856 47.147 36.7865 45.5336 38.4697 43.5368C40.5937 40.9918 42.2909 37.8516 43.6503 34.5161C43.6582 34.4753 43.6662 34.4344 43.7064 34.4425C45.8575 29.1859 47.1966 23.5962 47.9605 19.6741L47.9764 19.5924L48.0002 19.4698C48.0082 19.4289 48.0162 19.3881 47.976 19.38C47.9839 19.3392 47.9919 19.2983 47.9517 19.2902C47.9557 19.2698 47.9476 19.2576 47.9396 19.2453C47.9315 19.2331 47.9235 19.2209 47.9274 19.2004C47.9314 19.18 47.9234 19.1678 47.9153 19.1556C47.9072 19.1433 47.8992 19.1311 47.9032 19.1107C47.9081 19.0854 47.8946 19.0727 47.876 19.0551C47.8645 19.0442 47.851 19.0315 47.8387 19.0128L47.7743 18.9149C47.7557 18.8867 47.7478 18.8748 47.7368 18.8682C47.7287 18.8633 47.7189 18.8614 47.7019 18.8579L47.6374 18.7601C47.6173 18.756 47.6093 18.7438 47.6012 18.7316C47.5932 18.7193 47.5851 18.7071 47.565 18.7031C47.5449 18.699 47.5369 18.6868 47.5288 18.6746C47.5208 18.6623 47.5127 18.6501 47.4926 18.6461C47.4524 18.638 47.4524 18.638 47.4202 18.5891C47.4001 18.585 47.382 18.5708 47.3639 18.5565C47.3458 18.5423 47.3277 18.528 47.3076 18.524L47.2273 18.5078L47.1067 18.4836C43.2573 17.6676 37.6324 16.7496 32.0254 16.8116L29.2541 16.8915C24.6838 17.2043 20.3478 18.2435 17.0506 20.5952C14.339 22.5127 12.3761 25.3023 11.7328 29.2487C11.1925 32.4516 11.5479 36.5419 13.019 41.4226L13.3206 42.0353L13.6222 42.6479ZM38.3189 40.2375L22.031 37.6862L28.8665 33.0313L41.1849 34.9547C40.361 36.827 39.3843 38.6261 38.3189 40.2375ZM45.6642 20.3165C44.9317 23.8628 43.7756 28.5128 42.0327 32.9599L31.4178 31.2939L39.168 26.0161C39.6493 25.6883 39.7767 25.0346 39.4544 24.5453C39.1322 24.056 38.4893 23.9268 38.0079 24.2546L30.2577 29.5324L32.7844 18.917C37.4919 18.9715 42.1605 19.6549 45.6642 20.3165ZM29.3945 18.9576C29.8122 18.9566 30.2299 18.9556 30.6556 18.9138L27.7144 31.229L20.8709 35.9248L24.7606 19.5972C26.2381 19.2998 27.7881 19.0593 29.3945 18.9576ZM13.7498 29.6115C14.3139 26.2861 15.9402 23.9382 18.2186 22.3158C19.4782 21.4226 20.9068 20.7333 22.4643 20.2396L18.2794 37.6541L14.7172 40.0799C13.5365 35.8519 13.2489 32.3978 13.7498 29.6115ZM15.8693 41.8823L19.4315 39.4564L36.8605 42.1521C36.8605 42.1521 36.8525 42.193 36.8123 42.1849C35.3857 43.936 33.7256 45.3855 31.8072 46.2312C29.9291 47.085 27.7927 47.335 25.4141 46.8994C22.6416 46.3423 19.4816 44.7733 15.8693 41.8823Z" fill="#97D64A"/>
<path d="M13.6222 42.6479L14.0882 43.0952C18.1513 46.4589 21.8018 48.2963 25.0162 48.9422C27.8289 49.5074 30.3587 49.1667 32.6462 48.1404C34.8856 47.147 36.7865 45.5336 38.4697 43.5368C40.5937 40.9918 42.2909 37.8516 43.6503 34.5161C43.6582 34.4753 43.6662 34.4344 43.7064 34.4425C45.8575 29.1859 47.1966 23.5962 47.9605 19.6741L47.9764 19.5924L48.0002 19.4698C48.0082 19.4289 48.0162 19.3881 47.976 19.38C47.9839 19.3392 47.9919 19.2983 47.9517 19.2902C47.9557 19.2698 47.9476 19.2576 47.9396 19.2453C47.9315 19.2331 47.9235 19.2209 47.9274 19.2004C47.9314 19.18 47.9234 19.1678 47.9153 19.1556C47.9072 19.1433 47.8992 19.1311 47.9032 19.1107C47.9081 19.0854 47.8946 19.0727 47.876 19.0551C47.8645 19.0442 47.851 19.0315 47.8387 19.0128L47.7743 18.9149C47.7557 18.8867 47.7478 18.8748 47.7368 18.8682C47.7287 18.8633 47.7189 18.8614 47.7019 18.8579L47.6374 18.7601C47.6173 18.756 47.6093 18.7438 47.6012 18.7316C47.5932 18.7193 47.5851 18.7071 47.565 18.7031C47.5449 18.699 47.5369 18.6868 47.5288 18.6746C47.5208 18.6623 47.5127 18.6501 47.4926 18.6461C47.4524 18.638 47.4524 18.638 47.4202 18.5891C47.4001 18.585 47.382 18.5708 47.3639 18.5565C47.3458 18.5423 47.3277 18.528 47.3076 18.524L47.2273 18.5078L47.1067 18.4836C43.2573 17.6676 37.6324 16.7496 32.0254 16.8116L29.2541 16.8915C24.6838 17.2043 20.3478 18.2435 17.0506 20.5952C14.339 22.5127 12.3761 25.3023 11.7328 29.2487C11.1925 32.4516 11.5479 36.5419 13.019 41.4226L13.3206 42.0353L13.6222 42.6479ZM38.3189 40.2375L22.031 37.6862L28.8665 33.0313L41.1849 34.9547C40.361 36.827 39.3843 38.6261 38.3189 40.2375ZM45.6642 20.3165C44.9317 23.8628 43.7756 28.5128 42.0327 32.9599L31.4178 31.2939L39.168 26.0161C39.6493 25.6883 39.7767 25.0346 39.4544 24.5453C39.1322 24.056 38.4893 23.9268 38.0079 24.2546L30.2577 29.5324L32.7844 18.917C37.4919 18.9715 42.1605 19.6549 45.6642 20.3165ZM29.3945 18.9576C29.8122 18.9566 30.2299 18.9556 30.6556 18.9138L27.7144 31.229L20.8709 35.9248L24.7606 19.5972C26.2381 19.2998 27.7881 19.0593 29.3945 18.9576ZM13.7498 29.6115C14.3139 26.2861 15.9402 23.9382 18.2186 22.3158C19.4782 21.4226 20.9068 20.7333 22.4643 20.2396L18.2794 37.6541L14.7172 40.0799C13.5365 35.8519 13.2489 32.3978 13.7498 29.6115ZM15.8693 41.8823L19.4315 39.4564L36.8605 42.1521C36.8605 42.1521 36.8525 42.193 36.8123 42.1849C35.3857 43.936 33.7256 45.3855 31.8072 46.2312C29.9291 47.085 27.7927 47.335 25.4141 46.8994C22.6416 46.3423 19.4816 44.7733 15.8693 41.8823Z" stroke="#97D64A"/>
</g>
<path d="M68.286 8.09843H65.0508V5.73169H74.4855V8.09843H71.2654V16.284H68.286V8.09843Z" fill="#365214"/>
<path d="M85.6171 5.73169V16.284H82.6377V12.1686H78.5749V16.284H75.5955V5.73169H78.5749V9.69636H82.6377V5.73169H85.6171Z" fill="#365214"/>
<path d="M96.1753 13.9776V16.284H87.7186V5.73169H95.9797V8.03813H90.6679V9.81695H95.3477V12.048H90.6679V13.9776H96.1753Z" fill="#365214"/>
<path d="M73.1011 28.8715H75.7344V33.2432C75.1325 33.6753 74.4404 34.0069 73.6579 34.2381C72.8754 34.4692 72.093 34.5848 71.3105 34.5848C70.207 34.5848 69.2139 34.3537 68.3311 33.8914C67.4483 33.419 66.7562 32.7658 66.2546 31.9317C65.753 31.0975 65.5022 30.1528 65.5022 29.0976C65.5022 28.0424 65.753 27.0977 66.2546 26.2635C66.7562 25.4294 67.4534 24.7812 68.3462 24.3189C69.239 23.8465 70.2472 23.6104 71.3707 23.6104C72.3538 23.6104 73.2366 23.7762 74.019 24.1078C74.8015 24.4395 75.4536 24.9169 75.9752 25.5399L74.0792 27.2585C73.367 26.4746 72.5143 26.0826 71.5212 26.0826C70.6183 26.0826 69.891 26.359 69.3393 26.9118C68.7876 27.4544 68.5117 28.1831 68.5117 29.0976C68.5117 29.6805 68.6371 30.2031 68.8879 30.6654C69.1387 31.1176 69.4898 31.4744 69.9412 31.7357C70.3926 31.9869 70.9092 32.1125 71.4911 32.1125C72.0629 32.1125 72.5996 31.997 73.1011 31.7658V28.8715Z" fill="#365214"/>
<path d="M82.2279 31.5699H80.6028V34.3738H77.6234V23.8214H82.4385C83.3915 23.8214 84.2191 23.9822 84.9214 24.3038C85.6236 24.6154 86.1653 25.0676 86.5465 25.6605C86.9277 26.2434 87.1183 26.9319 87.1183 27.7258C87.1183 28.4896 86.9377 29.1579 86.5766 29.7307C86.2255 30.2935 85.7189 30.7357 85.0568 31.0573L87.3289 34.3738H84.1389L82.2279 31.5699ZM84.1088 27.7258C84.1088 27.2333 83.9533 26.8515 83.6423 26.5801C83.3314 26.3088 82.8699 26.1731 82.258 26.1731H80.6028V29.2634H82.258C82.8699 29.2634 83.3314 29.1328 83.6423 28.8715C83.9533 28.6001 84.1088 28.2182 84.1088 27.7258Z" fill="#365214"/>
<path d="M88.762 23.8214H91.7414V34.3738H88.762V23.8214Z" fill="#365214"/>
<path d="M93.861 23.8214H96.8404V32.007H101.866V34.3738H93.861V23.8214Z" fill="#365214"/>
<path d="M103.045 23.8214H106.025V32.007H111.05V34.3738H103.045V23.8214Z" fill="#365214"/>
<path d="M120.686 32.0673V34.3738H112.229V23.8214H120.49V26.1279H115.179V27.9067H119.859V30.1378H115.179V32.0673H120.686Z" fill="#365214"/>
<path d="M126.041 34.5848C125.188 34.5848 124.361 34.4793 123.558 34.2682C122.756 34.0572 122.104 33.7758 121.602 33.4241L122.58 31.2231C123.052 31.5347 123.598 31.7859 124.22 31.9769C124.842 32.1678 125.454 32.2633 126.056 32.2633C127.2 32.2633 127.772 31.9769 127.772 31.404C127.772 31.1025 127.606 30.8814 127.275 30.7407C126.954 30.59 126.432 30.4342 125.71 30.2734C124.918 30.1026 124.255 29.9217 123.724 29.7307C123.192 29.5297 122.736 29.2132 122.354 28.781C121.973 28.3489 121.783 27.766 121.783 27.0323C121.783 26.3892 121.958 25.8113 122.309 25.2987C122.66 24.7762 123.182 24.3641 123.874 24.0626C124.576 23.7611 125.434 23.6104 126.447 23.6104C127.14 23.6104 127.822 23.6908 128.494 23.8516C129.166 24.0023 129.758 24.2284 130.269 24.5299L129.352 26.7459C128.348 26.2032 127.375 25.9319 126.432 25.9319C125.84 25.9319 125.409 26.0223 125.138 26.2032C124.867 26.3741 124.732 26.6002 124.732 26.8816C124.732 27.163 124.892 27.374 125.214 27.5147C125.535 27.6554 126.051 27.8012 126.763 27.9519C127.566 28.1228 128.228 28.3087 128.75 28.5097C129.281 28.7006 129.738 29.0122 130.119 29.4443C130.51 29.8664 130.706 30.4443 130.706 31.1779C130.706 31.8111 130.53 32.3839 130.179 32.8964C129.828 33.409 129.301 33.821 128.599 34.1326C127.897 34.4341 127.044 34.5848 126.041 34.5848Z" fill="#365214"/>
<path d="M68.308 43.8559C68.9701 43.8559 69.4756 44.0187 69.8247 44.3443C70.1799 44.6699 70.3574 45.1553 70.3574 45.8005V48.6949H69.5358V48.0617C69.3914 48.2848 69.1837 48.4567 68.9129 48.5773C68.648 48.6919 68.332 48.7491 67.9649 48.7491C67.4292 48.7491 66.9988 48.6195 66.6738 48.3602C66.3548 48.1009 66.1953 47.7602 66.1953 47.3381C66.1953 46.916 66.3488 46.5784 66.6558 46.3251C66.9627 46.0658 67.4503 45.9362 68.1184 45.9362H69.4907V45.7643C69.4907 45.3905 69.3824 45.1041 69.1657 44.9051C68.949 44.7061 68.63 44.6066 68.2087 44.6066C67.9258 44.6066 67.6489 44.6548 67.378 44.7513C67.1072 44.8418 66.8785 44.9654 66.6919 45.1222L66.3307 44.4709C66.5775 44.2719 66.8724 44.1212 67.2155 44.0187C67.5586 43.9101 67.9228 43.8559 68.308 43.8559ZM68.1093 48.0798C68.4404 48.0798 68.7263 48.0075 68.967 47.8627C69.2078 47.712 69.3824 47.5009 69.4907 47.2296V46.5603H68.1545C67.4202 46.5603 67.053 46.8075 67.053 47.302C67.053 47.5432 67.1463 47.7331 67.3329 47.8718C67.5195 48.0105 67.7783 48.0798 68.1093 48.0798Z" fill="#45671D"/>
<path d="M74.5164 43.8559C75.1244 43.8559 75.6059 44.0338 75.961 44.3895C76.3221 44.7393 76.5027 45.2548 76.5027 45.9362V48.6949H75.636V46.0357C75.636 45.5714 75.5246 45.2216 75.3019 44.9865C75.0792 44.7513 74.7602 44.6337 74.3449 44.6337C73.8754 44.6337 73.5053 44.7724 73.2344 45.0498C72.9635 45.3211 72.8281 45.7131 72.8281 46.2256V48.6949H71.9614V43.9011H72.792V44.6247C72.9666 44.3775 73.2013 44.1875 73.4962 44.0549C73.7972 43.9222 74.1372 43.8559 74.5164 43.8559Z" fill="#45671D"/>
<path d="M82.6474 41.9836V48.6949H81.8168V47.9351C81.6242 48.2004 81.3804 48.4024 81.0855 48.5411C80.7905 48.6798 80.4655 48.7491 80.1104 48.7491C79.6469 48.7491 79.2316 48.6466 78.8645 48.4416C78.4973 48.2366 78.2084 47.9502 77.9977 47.5824C77.7931 47.2085 77.6908 46.7804 77.6908 46.298C77.6908 45.8156 77.7931 45.3905 77.9977 45.0227C78.2084 44.6548 78.4973 44.3684 78.8645 44.1634C79.2316 43.9584 79.6469 43.8559 80.1104 43.8559C80.4535 43.8559 80.7695 43.9222 81.0584 44.0549C81.3473 44.1815 81.5881 44.3714 81.7807 44.6247V41.9836H82.6474ZM80.1826 47.9894C80.4836 47.9894 80.7574 47.92 81.0042 47.7813C81.251 47.6366 81.4436 47.4376 81.582 47.1844C81.7205 46.9251 81.7897 46.6296 81.7897 46.298C81.7897 45.9663 81.7205 45.6739 81.582 45.4206C81.4436 45.1613 81.251 44.9624 81.0042 44.8237C80.7574 44.685 80.4836 44.6156 80.1826 44.6156C79.8757 44.6156 79.5988 44.685 79.352 44.8237C79.1113 44.9624 78.9187 45.1613 78.7742 45.4206C78.6358 45.6739 78.5665 45.9663 78.5665 46.298C78.5665 46.6296 78.6358 46.9251 78.7742 47.1844C78.9187 47.4376 79.1113 47.6366 79.352 47.7813C79.5988 47.92 79.8757 47.9894 80.1826 47.9894Z" fill="#45671D"/>
<path d="M89.267 43.8559C89.8749 43.8559 90.3564 44.0338 90.7116 44.3895C91.0727 44.7393 91.2533 45.2548 91.2533 45.9362V48.6949H90.3865V46.0357C90.3865 45.5714 90.2752 45.2216 90.0525 44.9865C89.8298 44.7513 89.5108 44.6337 89.0955 44.6337C88.626 44.6337 88.2558 44.7724 87.985 45.0498C87.7141 45.3211 87.5787 45.7131 87.5787 46.2256V48.6949H86.712V43.9011H87.5426V44.6247C87.7171 44.3775 87.9519 44.1875 88.2468 44.0549C88.5477 43.9222 88.8878 43.8559 89.267 43.8559Z" fill="#45671D"/>
<path d="M94.9332 48.7491C94.4577 48.7491 94.0304 48.6436 93.6512 48.4326C93.272 48.2215 92.974 47.9321 92.7574 47.5643C92.5467 47.1904 92.4414 46.7683 92.4414 46.298C92.4414 45.8276 92.5467 45.4086 92.7574 45.0407C92.974 44.6669 93.272 44.3775 93.6512 44.1724C94.0304 43.9614 94.4577 43.8559 94.9332 43.8559C95.4087 43.8559 95.833 43.9614 96.2062 44.1724C96.5854 44.3775 96.8803 44.6669 97.091 45.0407C97.3077 45.4086 97.416 45.8276 97.416 46.298C97.416 46.7683 97.3077 47.1904 97.091 47.5643C96.8803 47.9321 96.5854 48.2215 96.2062 48.4326C95.833 48.6436 95.4087 48.7491 94.9332 48.7491ZM94.9332 47.9894C95.2402 47.9894 95.514 47.92 95.7548 47.7813C96.0016 47.6366 96.1942 47.4376 96.3326 47.1844C96.4711 46.9251 96.5403 46.6296 96.5403 46.298C96.5403 45.9663 96.4711 45.6739 96.3326 45.4206C96.1942 45.1613 96.0016 44.9624 95.7548 44.8237C95.514 44.685 95.2402 44.6156 94.9332 44.6156C94.6262 44.6156 94.3494 44.685 94.1026 44.8237C93.8618 44.9624 93.6692 45.1613 93.5248 45.4206C93.3863 45.6739 93.3171 45.9663 93.3171 46.298C93.3171 46.6296 93.3863 46.9251 93.5248 47.1844C93.6692 47.4376 93.8618 47.6366 94.1026 47.7813C94.3494 47.92 94.6262 47.9894 94.9332 47.9894Z" fill="#45671D"/>
<path d="M101.305 48.4145C101.179 48.523 101.022 48.6074 100.836 48.6677C100.649 48.722 100.457 48.7491 100.258 48.7491C99.7764 48.7491 99.4032 48.6195 99.1384 48.3602C98.8735 48.1009 98.7411 47.7301 98.7411 47.2477V44.6156H97.9285V43.9011H98.7411V42.8519H99.6078V43.9011H100.98V44.6156H99.6078V47.2115C99.6078 47.4708 99.671 47.6698 99.7974 47.8085C99.9298 47.9472 100.116 48.0165 100.357 48.0165C100.622 48.0165 100.848 47.9411 101.034 47.7904L101.305 48.4145Z" fill="#45671D"/>
<path d="M106.827 48.7491C106.352 48.7491 105.924 48.6436 105.545 48.4326C105.166 48.2215 104.868 47.9321 104.651 47.5643C104.441 47.1904 104.335 46.7683 104.335 46.298C104.335 45.8276 104.441 45.4086 104.651 45.0407C104.868 44.6669 105.166 44.3775 105.545 44.1724C105.924 43.9614 106.352 43.8559 106.827 43.8559C107.303 43.8559 107.727 43.9614 108.1 44.1724C108.479 44.3775 108.774 44.6669 108.985 45.0407C109.202 45.4086 109.31 45.8276 109.31 46.298C109.31 46.7683 109.202 47.1904 108.985 47.5643C108.774 47.9321 108.479 48.2215 108.1 48.4326C107.727 48.6436 107.303 48.7491 106.827 48.7491ZM106.827 47.9894C107.134 47.9894 107.408 47.92 107.649 47.7813C107.896 47.6366 108.088 47.4376 108.227 47.1844C108.365 46.9251 108.434 46.6296 108.434 46.298C108.434 45.9663 108.365 45.6739 108.227 45.4206C108.088 45.1613 107.896 44.9624 107.649 44.8237C107.408 44.685 107.134 44.6156 106.827 44.6156C106.52 44.6156 106.243 44.685 105.997 44.8237C105.756 44.9624 105.563 45.1613 105.419 45.4206C105.28 45.6739 105.211 45.9663 105.211 46.298C105.211 46.6296 105.28 46.9251 105.419 47.1844C105.563 47.4376 105.756 47.6366 105.997 47.7813C106.243 47.92 106.52 47.9894 106.827 47.9894Z" fill="#45671D"/>
<path d="M113.064 43.8559C113.672 43.8559 114.153 44.0338 114.508 44.3895C114.869 44.7393 115.05 45.2548 115.05 45.9362V48.6949H114.183V46.0357C114.183 45.5714 114.072 45.2216 113.849 44.9865C113.626 44.7513 113.307 44.6337 112.892 44.6337C112.423 44.6337 112.052 44.7724 111.782 45.0498C111.511 45.3211 111.375 45.7131 111.375 46.2256V48.6949H110.509V43.9011H111.339V44.6247C111.514 44.3775 111.749 44.1875 112.043 44.0549C112.344 43.9222 112.684 43.8559 113.064 43.8559Z" fill="#45671D"/>
<path d="M116.654 41.9836H117.521V48.6949H116.654V41.9836Z" fill="#45671D"/>
<path d="M123.41 43.9011L121.09 49.1742C120.885 49.6627 120.644 50.0064 120.367 50.2054C120.096 50.4044 119.768 50.5038 119.383 50.5038C119.148 50.5038 118.92 50.4647 118.697 50.3863C118.48 50.3139 118.3 50.2054 118.155 50.0606L118.526 49.4094C118.772 49.6446 119.058 49.7622 119.383 49.7622C119.594 49.7622 119.768 49.7049 119.907 49.5903C120.051 49.4818 120.181 49.2918 120.295 49.0205L120.449 48.6858L118.336 43.9011H119.239L120.909 47.7361L122.561 43.9011H123.41Z" fill="#45671D"/>
<defs>
<clipPath id="clip0">
<rect width="49.4566" height="53.3001" fill="white" transform="translate(0.695312 0.401855)"/>
</clipPath>
</defs>
</svg>
