<svg width="23" height="21" viewBox="0 0 23 21" fill="none" xmlns="http://www.w3.org/2000/svg">
<path d="M18.894 4.94678H17.8106V3.82178C17.8106 2.92667 17.4682 2.06823 16.8587 1.43529C16.2492 0.802357 15.4226 0.446777 14.5606 0.446777H3.7273C2.86534 0.446777 2.03869 0.802357 1.4292 1.43529C0.819705 2.06823 0.477295 2.92667 0.477295 3.82178V17.3218C0.477295 18.2169 0.819705 19.0753 1.4292 19.7083C2.03869 20.3412 2.86534 20.6968 3.7273 20.6968H18.894C19.7559 20.6968 20.5826 20.3412 21.1921 19.7083C21.8016 19.0753 22.144 18.2169 22.144 17.3218V8.32178C22.144 7.42667 21.8016 6.56823 21.1921 5.93529C20.5826 5.30236 19.7559 4.94678 18.894 4.94678ZM3.7273 2.69678H14.5606C14.8479 2.69678 15.1235 2.8153 15.3267 3.02628C15.5298 3.23726 15.644 3.52341 15.644 3.82178V4.94678H3.7273C3.43998 4.94678 3.16443 4.82825 2.96126 4.61727C2.7581 4.40629 2.64396 4.12015 2.64396 3.82178C2.64396 3.52341 2.7581 3.23726 2.96126 3.02628C3.16443 2.8153 3.43998 2.69678 3.7273 2.69678ZM19.9773 13.9468H18.894C18.6066 13.9468 18.3311 13.8282 18.1279 13.6173C17.9248 13.4063 17.8106 13.1201 17.8106 12.8218C17.8106 12.5234 17.9248 12.2373 18.1279 12.0263C18.3311 11.8153 18.6066 11.6968 18.894 11.6968H19.9773V13.9468ZM19.9773 9.44678H18.894C18.032 9.44678 17.2054 9.80236 16.5959 10.4353C15.9864 11.0682 15.644 11.9267 15.644 12.8218C15.644 13.7169 15.9864 14.5753 16.5959 15.2083C17.2054 15.8412 18.032 16.1968 18.894 16.1968H19.9773V17.3218C19.9773 17.6201 19.8632 17.9063 19.66 18.1173C19.4568 18.3283 19.1813 18.4468 18.894 18.4468H3.7273C3.43998 18.4468 3.16443 18.3283 2.96126 18.1173C2.7581 17.9063 2.64396 17.6201 2.64396 17.3218V7.00553C2.992 7.13267 3.35835 7.19735 3.7273 7.19678H18.894C19.1813 7.19678 19.4568 7.3153 19.66 7.52628C19.8632 7.73726 19.9773 8.02341 19.9773 8.32178V9.44678Z" fill="black"/>
</svg>
