<svg width="35" height="31" viewBox="0 0 35 31" fill="none" xmlns="http://www.w3.org/2000/svg">
<path d="M27.4846 6.91764V7.01764H27.5846H29.2513C30.5509 7.01764 31.7972 7.53389 32.7161 8.45282C33.6351 9.37175 34.1513 10.6181 34.1513 11.9176V25.251C34.1513 26.5505 33.6351 27.7969 32.7161 28.7158C31.7972 29.6347 30.5509 30.151 29.2513 30.151H5.91797C4.61841 30.151 3.37207 29.6347 2.45315 28.7158C1.53422 27.7969 1.01797 26.5505 1.01797 25.251V5.25098C1.01797 3.95142 1.53422 2.70508 2.45315 1.78615C3.37207 0.867225 4.61841 0.350977 5.91797 0.350977H22.5846C23.8842 0.350977 25.1305 0.867225 26.0495 1.78615C26.9684 2.70508 27.4846 3.95142 27.4846 5.25098V6.91764ZM24.2513 7.01764H24.3513V6.91764V5.25098C24.3513 4.78243 24.1652 4.33307 23.8339 4.00175C23.5025 3.67044 23.0532 3.48431 22.5846 3.48431H5.91797C5.44942 3.48431 5.00006 3.67044 4.66875 4.00175C4.33743 4.33307 4.1513 4.78243 4.1513 5.25098C4.1513 5.71953 4.33743 6.16888 4.66875 6.5002C5.00006 6.83151 5.44942 7.01764 5.91797 7.01764H24.2513ZM30.918 20.351H31.018V20.251V16.9176V16.8176H30.918H29.2513C28.7828 16.8176 28.3334 17.0038 28.0021 17.3351C27.6708 17.6664 27.4846 18.1158 27.4846 18.5843C27.4846 19.0529 27.6708 19.5022 28.0021 19.8335C28.3334 20.1648 28.7828 20.351 29.2513 20.351H30.918ZM30.918 13.6843H31.018V13.5843V11.9176C31.018 11.4491 30.8318 10.9997 30.5005 10.6684C30.1692 10.3371 29.7199 10.151 29.2513 10.151H5.91797L5.91782 10.151C5.36156 10.1518 4.80922 10.0579 4.28449 9.87331L4.1513 9.82646V9.96764V25.251C4.1513 25.7195 4.33743 26.1689 4.66875 26.5002C5.00006 26.8315 5.44942 27.0176 5.91797 27.0176H29.2513C29.7199 27.0176 30.1692 26.8315 30.5005 26.5002C30.8318 26.1689 31.018 25.7195 31.018 25.251V23.5843V23.4843H30.918H29.2513C27.9517 23.4843 26.7054 22.9681 25.7865 22.0491C24.8676 21.1302 24.3513 19.8839 24.3513 18.5843C24.3513 17.2847 24.8676 16.0384 25.7865 15.1195C26.7054 14.2006 27.9517 13.6843 29.2513 13.6843H30.918Z" fill="#7B61FF" stroke="#F9F9FA" stroke-width="0.2"/>
</svg>
