<svg width="31" height="36" viewBox="0 0 31 36" fill="none" xmlns="http://www.w3.org/2000/svg">
<path d="M24.3665 9.03134L25.6099 7.78801C26.2606 7.13723 27.3157 7.13723 27.9665 7.78801V7.78801C28.6173 8.43878 28.6173 9.4939 27.9665 10.1447L26.7232 11.388C29.1161 14.3833 30.2714 18.1811 29.9517 22.0016C29.6319 25.822 27.8615 29.375 25.004 31.9309C22.1465 34.4868 18.4188 35.8515 14.5865 35.7448C10.7542 35.6381 7.10821 34.0681 4.39731 31.3572C1.68642 28.6463 0.116405 25.0003 0.00972097 21.168C-0.0969634 17.3357 1.26778 13.608 3.82366 10.7505C6.37954 7.89301 9.93254 6.1226 13.753 5.80287C17.5734 5.48315 21.3712 6.63839 24.3665 9.03134ZM15.0032 32.418C16.5353 32.418 18.0524 32.1162 19.4678 31.5299C20.8833 30.9436 22.1694 30.0843 23.2528 29.0009C24.3361 27.9176 25.1955 26.6314 25.7818 25.216C26.3681 23.8005 26.6699 22.2834 26.6699 20.7513C26.6699 19.2193 26.3681 17.7022 25.7818 16.2867C25.1955 14.8712 24.3361 13.5851 23.2528 12.5018C22.1694 11.4184 20.8833 10.5591 19.4678 9.97275C18.0524 9.38644 16.5353 9.08468 15.0032 9.08468C11.909 9.08468 8.94154 10.3138 6.75361 12.5018C4.56569 14.6897 3.33652 17.6572 3.33652 20.7513C3.33652 23.8455 4.56569 26.813 6.75361 29.0009C8.94154 31.1888 11.909 32.418 15.0032 32.418ZM13.3365 14.0847C13.3365 13.1642 14.0827 12.418 15.0032 12.418V12.418C15.9237 12.418 16.6699 13.1642 16.6699 14.0847V20.7513C16.6699 21.6718 15.9237 22.418 15.0032 22.418V22.418C14.0827 22.418 13.3365 21.6718 13.3365 20.7513V14.0847ZM8.33652 2.41801C8.33652 1.49753 9.08272 0.751343 10.0032 0.751343H20.0032C20.9237 0.751343 21.6699 1.49753 21.6699 2.41801V2.41801C21.6699 3.33848 20.9237 4.08468 20.0032 4.08468H10.0032C9.08272 4.08468 8.33652 3.33848 8.33652 2.41801V2.41801Z" fill="#7B61FF"/>
</svg>
