<svg width="16" height="16" viewBox="0 0 16 16" fill="none" xmlns="http://www.w3.org/2000/svg">
<path d="M7.14968 0.767322C3.62091 0.767322 0.749805 3.63038 0.749805 7.14987C0.749805 10.6694 3.62094 13.5324 7.14968 13.5324C10.6784 13.5324 13.5496 10.6694 13.5496 7.14987C13.5496 3.63038 10.6784 0.767322 7.14968 0.767322ZM7.14968 12.3914C4.24977 12.3914 1.89077 10.0397 1.89077 7.14984C1.89077 4.25978 4.24977 1.90826 7.14968 1.90826C10.0496 1.90826 12.4086 4.25978 12.4086 7.14984C12.4086 10.0397 10.0496 12.3914 7.14968 12.3914Z" fill="#ACACAC" stroke="#ACACAC" stroke-width="0.1"/>
<path d="M15.0819 14.2577L15.0819 14.2577L11.664 10.8572L11.664 10.8572C11.4406 10.6351 11.0795 10.636 10.8572 10.8593L10.8572 10.8593C10.6351 11.0827 10.636 11.4438 10.8593 11.6661L10.8593 11.6661L14.2771 15.0666L14.2772 15.0666C14.3885 15.1773 14.5339 15.2326 14.6795 15.2326C14.826 15.2326 14.9725 15.1765 15.084 15.0645L15.084 15.0645C15.3061 14.8411 15.3051 14.48 15.0819 14.2577Z" fill="#ACACAC" stroke="#ACACAC" stroke-width="0.1"/>
</svg>
