<svg width="21" height="27" viewBox="0 0 21 27" fill="none" xmlns="http://www.w3.org/2000/svg">
<path d="M19.9009 2.92409C19.7582 2.80423 19.5915 2.7191 19.4129 2.67496C19.2344 2.63081 19.0486 2.62878 18.8692 2.66901C17.5569 2.95463 16.2021 2.95826 14.8883 2.6797C13.5745 2.40114 12.3296 1.84627 11.2301 1.04925C11.0245 0.901143 10.7802 0.821777 10.53 0.821777C10.2798 0.821777 10.0356 0.901143 9.82997 1.04925C8.73046 1.84627 7.4855 2.40114 6.17172 2.6797C4.85794 2.95826 3.50317 2.95463 2.1908 2.66901C2.01141 2.62878 1.82562 2.63081 1.64709 2.67496C1.46856 2.7191 1.30182 2.80423 1.15914 2.92409C1.01665 3.04413 0.901865 3.1958 0.823227 3.36795C0.74459 3.5401 0.704095 3.72836 0.704719 3.9189V13.4206C0.703627 15.2492 1.12324 17.0516 1.92863 18.6778C2.73401 20.3039 3.90185 21.7067 5.33489 22.7693L9.81768 26.0853C10.0257 26.2391 10.2747 26.3218 10.53 26.3218C10.7854 26.3218 11.0343 26.2391 11.2424 26.0853L15.7251 22.7693C17.1582 21.7067 18.326 20.3039 19.1314 18.6778C19.9368 17.0516 20.3564 15.2492 20.3553 13.4206V3.9189C20.3559 3.72836 20.3154 3.5401 20.2368 3.36795C20.1582 3.1958 20.0434 3.04413 19.9009 2.92409ZM17.899 13.4206C17.8999 14.8424 17.5739 16.2438 16.948 17.5083C16.3221 18.7728 15.4144 19.8637 14.3005 20.6904L10.53 23.4835L6.75956 20.6904C5.64566 19.8637 4.73799 18.7728 4.11207 17.5083C3.48616 16.2438 3.1601 14.8424 3.16104 13.4206V5.38561C5.7358 5.61446 8.31446 4.99409 10.53 3.6128C12.7456 4.99409 15.3242 5.61446 17.899 5.38561V13.4206ZM12.4214 10.5L9.11763 13.9435L8.02457 12.7957C7.7933 12.5555 7.47963 12.4206 7.15257 12.4206C6.82551 12.4206 6.51184 12.5555 6.28058 12.7957C6.04931 13.0358 5.91938 13.3616 5.91938 13.7012C5.91938 14.0409 6.04931 14.3666 6.28058 14.6067L8.24564 16.6474C8.35981 16.7669 8.49565 16.8618 8.64531 16.9266C8.79497 16.9913 8.9555 17.0246 9.11763 17.0246C9.27976 17.0246 9.44029 16.9913 9.58995 16.9266C9.73962 16.8618 9.87545 16.7669 9.98963 16.6474L14.2145 12.2983C14.4458 12.0581 14.5757 11.7324 14.5757 11.3927C14.5757 11.0531 14.4458 10.7274 14.2145 10.4872C13.9832 10.247 13.6696 10.1121 13.3425 10.1121C13.0154 10.1121 12.7018 10.247 12.4705 10.4872L12.4214 10.5Z" fill="black"/>
</svg>
