<svg width="17" height="17" viewBox="0 0 17 17" fill="none" xmlns="http://www.w3.org/2000/svg">
<rect width="16" height="16" transform="translate(0.5 0.0146484)" fill="white"/>
<path d="M15.167 6.46141C15.1249 6.33947 15.0483 6.23236 14.9465 6.15308C14.8448 6.0738 14.7222 6.02574 14.5936 6.01475L10.8003 5.46141L9.10031 2.01475C9.04572 1.90203 8.96049 1.80697 8.85437 1.74046C8.74825 1.67395 8.62555 1.63867 8.50031 1.63867C8.37507 1.63867 8.25237 1.67395 8.14625 1.74046C8.04014 1.80697 7.9549 1.90203 7.90031 2.01475L6.20031 5.45475L2.40698 6.01475C2.28359 6.03228 2.16759 6.08405 2.07214 6.16418C1.97669 6.24431 1.90562 6.3496 1.86698 6.46808C1.83161 6.58386 1.82843 6.70709 1.8578 6.82454C1.88716 6.94199 1.94795 7.04923 2.03364 7.13475L4.78698 9.80141L4.12031 13.5881C4.0934 13.7137 4.10335 13.8444 4.14897 13.9645C4.19459 14.0846 4.27394 14.1889 4.37746 14.265C4.48099 14.3411 4.60429 14.3856 4.73253 14.3932C4.86077 14.4009 4.98848 14.3713 5.10031 14.3081L8.50031 12.5281L11.9003 14.3081C11.9939 14.3609 12.0996 14.3884 12.207 14.3881C12.3482 14.3886 12.4859 14.3442 12.6003 14.2614C12.7037 14.1873 12.7838 14.0852 12.8311 13.967C12.8783 13.8489 12.8908 13.7197 12.867 13.5947L12.2003 9.80808L14.9536 7.14141C15.0499 7.05986 15.121 6.95268 15.1588 6.83231C15.1966 6.71194 15.1994 6.58333 15.167 6.46141Z" fill="#F4BE55"/>
</svg>
