<svg width="18" height="18" viewBox="0 0 18 18" fill="none" xmlns="http://www.w3.org/2000/svg">
<path d="M9.00016 10.1387C3.59182 10.1387 0.613281 12.6972 0.613281 17.3431C0.613281 17.7059 0.907363 18 1.27021 18H16.7301C17.0929 18 17.387 17.7059 17.387 17.3431C17.387 12.6975 14.4085 10.1387 9.00016 10.1387ZM1.95105 16.6862C2.20945 13.2125 4.57768 11.4526 9.00016 11.4526C13.4226 11.4526 15.7909 13.2125 16.0495 16.6862H1.95105Z" fill="#444B5B"/>
<path d="M9.00024 0C6.51592 0 4.64258 1.91102 4.64258 4.44505C4.64258 7.0533 6.59741 9.17498 9.00024 9.17498C11.4031 9.17498 13.3579 7.0533 13.3579 4.44526C13.3579 1.91102 11.4846 0 9.00024 0ZM9.00024 7.86133C7.32177 7.86133 5.95644 6.3289 5.95644 4.44526C5.95644 2.63081 7.23659 1.31386 9.00024 1.31386C10.7357 1.31386 12.044 2.65992 12.044 4.44526C12.044 6.3289 10.6787 7.86133 9.00024 7.86133Z" fill="#444B5B"/>
</svg>
