<svg width="19" height="20" viewBox="0 0 19 20" fill="none" xmlns="http://www.w3.org/2000/svg">
<mask id="mask0" mask-type="alpha" maskUnits="userSpaceOnUse" x="5" y="0" width="9" height="9">
<path fill-rule="evenodd" clip-rule="evenodd" d="M5.61133 0.833252H13.9183V8.44696H5.61133V0.833252Z" fill="white"/>
</mask>
<g mask="url(#mask0)">
<path fill-rule="evenodd" clip-rule="evenodd" d="M13.2308 8.44699C12.8513 8.44699 12.5433 8.13899 12.5433 7.75948V4.98009C12.5433 3.45198 11.3012 2.20804 9.77308 2.20804C9.02965 2.2337 8.33297 2.49037 7.80679 3.01105C7.28061 3.53264 6.98911 4.22658 6.98636 4.96634V7.75948C6.98636 8.13899 6.67835 8.44699 6.29884 8.44699C5.91933 8.44699 5.61133 8.13899 5.61133 7.75948V4.98009C5.61591 3.85348 6.05134 2.81396 6.83877 2.03478C7.62528 1.25468 8.68131 0.865092 9.77583 0.833008C12.0593 0.833008 13.9183 2.69388 13.9183 4.98009V7.75948C13.9183 8.13899 13.6103 8.44699 13.2308 8.44699Z" fill="#444B5B"/>
</g>
<mask id="mask1" mask-type="alpha" maskUnits="userSpaceOnUse" x="0" y="4" width="19" height="16">
<path fill-rule="evenodd" clip-rule="evenodd" d="M0.833984 4.93506H18.7092V19.1666H0.833984V4.93506Z" fill="white"/>
</mask>
<g mask="url(#mask1)">
<path fill-rule="evenodd" clip-rule="evenodd" d="M5.42468 6.31012C3.65181 6.31012 2.20895 7.75115 2.20895 9.5231V14.5795C2.20895 16.3506 3.65181 17.7916 5.42468 17.7916H14.1185C15.8914 17.7916 17.3343 16.3506 17.3343 14.5795V9.5231C17.3343 7.75115 15.8914 6.31012 14.1185 6.31012H5.42468ZM14.1186 19.1666H5.42474C2.89378 19.1666 0.833984 17.1086 0.833984 14.5795V9.52307C0.833984 6.99302 2.89378 4.93506 5.42474 4.93506H14.1186C16.6505 4.93506 18.7093 6.99302 18.7093 9.52307V14.5795C18.7093 17.1086 16.6505 19.1666 14.1186 19.1666Z" fill="#444B5B"/>
</g>
</svg>
