<svg width="20" height="20" viewBox="0 0 20 20" fill="none" xmlns="http://www.w3.org/2000/svg">
<path d="M16.6673 18.3334C17.1276 18.3334 17.5006 17.9603 17.5006 17.5001C17.5006 17.0398 17.1276 16.6667 16.6673 16.6667C16.2071 16.6667 15.834 17.0398 15.834 17.5001C15.834 17.9603 16.2071 18.3334 16.6673 18.3334Z" stroke="#444B5B" stroke-width="1.5" stroke-linecap="round" stroke-linejoin="round"/>
<path d="M7.49935 18.3334C7.95959 18.3334 8.33268 17.9603 8.33268 17.5001C8.33268 17.0398 7.95959 16.6667 7.49935 16.6667C7.03911 16.6667 6.66602 17.0398 6.66602 17.5001C6.66602 17.9603 7.03911 18.3334 7.49935 18.3334Z" stroke="#444B5B" stroke-width="1.5" stroke-linecap="round" stroke-linejoin="round"/>
<path d="M0.833984 0.833252H4.16732L6.40065 11.9916C6.47685 12.3752 6.68557 12.7199 6.99027 12.9652C7.29497 13.2104 7.67623 13.3407 8.06732 13.3333H16.1673C16.5584 13.3407 16.9397 13.2104 17.2444 12.9652C17.5491 12.7199 17.7578 12.3752 17.834 11.9916L19.1673 4.99992H5.00065" stroke="#444B5B" stroke-width="1.5" stroke-linecap="round" stroke-linejoin="round"/>
</svg>
