<svg width="28" height="32" viewBox="0 0 28 32" fill="none" xmlns="http://www.w3.org/2000/svg">
<path d="M22.4264 7.7023L23.5454 6.58331C24.1311 5.99761 25.0807 5.99761 25.6664 6.5833C26.2521 7.169 26.2521 8.11861 25.6664 8.70431L24.5474 9.82331C26.701 12.5191 27.7407 15.9371 27.453 19.3755C27.1652 22.8139 25.5719 26.0116 23.0001 28.3119C20.4283 30.6122 17.0734 31.8404 13.6243 31.7444C10.1753 31.6484 6.89387 30.2354 4.45406 27.7956C2.01426 25.3558 0.601249 22.0744 0.505233 18.6253C0.409217 15.1763 1.63748 11.8213 3.93778 9.24957C6.23807 6.67781 9.43577 5.08443 12.8742 4.79668C16.3125 4.50893 19.7306 5.54865 22.4264 7.7023ZM13.9994 28.7503C15.3782 28.7503 16.7436 28.4787 18.0175 27.951C19.2915 27.4234 20.449 26.6499 21.424 25.6749C22.399 24.6999 23.1724 23.5424 23.7001 22.2685C24.2278 20.9946 24.4994 19.6292 24.4994 18.2503C24.4994 16.8714 24.2278 15.506 23.7001 14.2321C23.1724 12.9582 22.399 11.8007 21.424 10.8257C20.449 9.85067 19.2915 9.07724 18.0175 8.54957C16.7436 8.0219 15.3782 7.7503 13.9994 7.75031C11.2146 7.75031 8.54387 8.85655 6.57474 10.8257C4.6056 12.7948 3.49936 15.4655 3.49936 18.2503C3.49936 21.0351 4.6056 23.7058 6.57474 25.6749C8.54387 27.6441 11.2146 28.7503 13.9994 28.7503ZM12.4994 12.2503C12.4994 11.4219 13.1709 10.7503 13.9994 10.7503C14.8278 10.7503 15.4994 11.4219 15.4994 12.2503V18.2503C15.4994 19.0787 14.8278 19.7503 13.9994 19.7503C13.1709 19.7503 12.4994 19.0787 12.4994 18.2503V12.2503ZM7.99936 1.75031C7.99936 0.921878 8.67093 0.250305 9.49936 0.250305H18.4994C19.3278 0.250305 19.9994 0.921878 19.9994 1.75031C19.9994 2.57873 19.3278 3.25031 18.4994 3.25031H9.49936C8.67093 3.25031 7.99936 2.57873 7.99936 1.75031Z" fill="black"/>
</svg>
