<svg width="26" height="26" viewBox="0 0 26 26" fill="none" xmlns="http://www.w3.org/2000/svg">
<path d="M13 14.4802C5.96915 14.4802 2.09705 17.8063 2.09705 23.846C2.09705 24.3177 2.47935 24.7 2.95105 24.7H23.0489C23.5206 24.7 23.9029 24.3177 23.9029 23.846C23.9029 17.8066 20.0308 14.4802 13 14.4802ZM3.83614 22.992C4.17206 18.4762 7.25076 16.1883 13 16.1883C18.7492 16.1883 21.828 18.4762 22.1642 22.992H3.83614Z" fill="white"/>
<path d="M13.0002 1.30005C9.77055 1.30005 7.33521 3.78438 7.33521 7.07862C7.33521 10.4693 9.87649 13.2275 13.0002 13.2275C16.1238 13.2275 18.6651 10.4693 18.6651 7.07889C18.6651 3.78438 16.2298 1.30005 13.0002 1.30005ZM13.0002 11.5198C10.8182 11.5198 9.04323 9.52762 9.04323 7.07889C9.04323 4.72011 10.7074 3.00807 13.0002 3.00807C15.2562 3.00807 16.9571 4.75795 16.9571 7.07889C16.9571 9.52762 15.1822 11.5198 13.0002 11.5198Z" fill="white"/>
</svg>
