<svg width="18" height="19" viewBox="0 0 18 19" fill="none" xmlns="http://www.w3.org/2000/svg">
<path d="M8.99985 10.3748C6.54479 10.3748 4.61783 10.9554 3.3027 12.0851C1.98395 13.2179 1.30166 14.8845 1.30166 17.0088C1.30166 17.4182 1.63349 17.7501 2.0429 17.7501H15.9568C16.3662 17.7501 16.698 17.4182 16.698 17.0088C16.698 14.8846 16.0157 13.218 14.697 12.0851C13.3819 10.9554 11.4549 10.3748 8.99985 10.3748ZM15.1808 16.2676H2.81907C2.96027 14.8202 3.52995 13.7397 4.5118 13.0105C5.53531 12.2505 7.02658 11.8573 8.99985 11.8573C10.9731 11.8573 12.4644 12.2505 13.4879 13.0105C14.4698 13.7397 15.0395 14.8202 15.1808 16.2676Z" fill="#3D3D3D" stroke="#3D3D3D" stroke-width="0.3"/>
<path d="M9.00002 1.25002C6.67849 1.25002 4.92812 3.03993 4.92812 5.40057C4.92812 7.81902 6.74329 9.8075 9.00002 9.8075C11.2567 9.8075 13.0719 7.81903 13.0719 5.40076C13.0719 3.03993 11.3215 1.25002 9.00002 1.25002ZM9.00002 8.32522C7.58805 8.32522 6.4106 7.02994 6.4106 5.40076C6.4106 3.84656 7.49956 2.7325 9.00002 2.7325C10.4751 2.7325 11.5894 3.87276 11.5894 5.40076C11.5894 7.02994 10.412 8.32522 9.00002 8.32522Z" fill="#3D3D3D" stroke="#3D3D3D" stroke-width="0.3"/>
</svg>
