<svg width="16" height="17" viewBox="0 0 16 17" fill="none" xmlns="http://www.w3.org/2000/svg">
<path fill-rule="evenodd" clip-rule="evenodd" d="M0.628271 15.5387L3.57618 14.7654L3.8606 14.9342C5.05646 15.6438 6.42727 16.0193 7.82491 16.0199H7.82807C12.121 16.0199 15.6151 12.5257 15.6168 8.23101C15.6176 6.1498 14.8082 4.19293 13.3377 2.72068C11.8671 1.24843 9.91152 0.437245 7.83113 0.436523C3.53485 0.436523 0.0407679 3.93029 0.0390632 8.2247C0.0384597 9.69642 0.450247 11.1297 1.22992 12.3698L1.41511 12.6645L0.628271 15.5387ZM12.2284 10.2489C12.3918 10.3278 12.502 10.3811 12.5491 10.4597C12.6076 10.5573 12.6076 11.0261 12.4126 11.5732C12.2174 12.1201 11.282 12.6193 10.8321 12.6865C10.4287 12.7468 9.9182 12.772 9.3573 12.5937C9.01721 12.4858 8.5811 12.3418 8.02246 12.1005C5.82734 11.1526 4.3439 9.02512 4.06354 8.62302C4.0439 8.59485 4.03016 8.57515 4.0225 8.56491L4.02061 8.56239C3.89669 8.39706 3.0664 7.28925 3.0664 6.14272C3.0664 5.06416 3.59621 4.49884 3.84007 4.23862C3.85678 4.22079 3.87215 4.20439 3.88591 4.18936C4.10053 3.95494 4.35422 3.89634 4.51031 3.89634C4.66639 3.89634 4.82265 3.89778 4.95908 3.90463C4.97591 3.90548 4.99342 3.90537 5.01152 3.90527C5.14797 3.90447 5.31809 3.90347 5.4859 4.30657C5.55047 4.46171 5.64494 4.6917 5.74457 4.93427C5.94605 5.42478 6.16866 5.96673 6.20783 6.04516C6.26638 6.16237 6.30539 6.29906 6.22735 6.4554C6.21563 6.47884 6.2048 6.50096 6.19444 6.5221C6.13582 6.64178 6.0927 6.72981 5.99321 6.84598C5.95408 6.89166 5.91364 6.94091 5.87321 6.99015C5.79266 7.08825 5.71211 7.18634 5.64197 7.25621C5.52475 7.37297 5.40273 7.49965 5.53931 7.73407C5.6759 7.96849 6.14582 8.73523 6.84191 9.35613C7.59017 10.0235 8.2405 10.3056 8.57014 10.4486C8.63451 10.4765 8.68666 10.4992 8.72491 10.5183C8.95897 10.6356 9.09556 10.6159 9.23216 10.4597C9.36876 10.3034 9.81749 9.77597 9.97356 9.54159C10.1296 9.30726 10.2858 9.34629 10.5004 9.4244C10.715 9.50261 11.8662 10.069 12.1004 10.1862C12.1461 10.2091 12.1888 10.2297 12.2284 10.2489Z" fill="white"/>
</svg>
