<svg width="24" height="25" viewBox="0 0 24 25" fill="none" xmlns="http://www.w3.org/2000/svg">
<path d="M9.85 13.9715H2.325C2.03989 13.9715 1.76646 14.0847 1.56486 14.2863C1.36326 14.4879 1.25 14.7614 1.25 15.0465V22.5715C1.25 22.8566 1.36326 23.13 1.56486 23.3316C1.76646 23.5332 2.03989 23.6465 2.325 23.6465H9.85C10.1351 23.6465 10.4085 23.5332 10.6101 23.3316C10.8117 23.13 10.925 22.8566 10.925 22.5715V15.0465C10.925 14.7614 10.8117 14.4879 10.6101 14.2863C10.4085 14.0847 10.1351 13.9715 9.85 13.9715ZM8.775 21.4965H3.4V16.1215H8.775V21.4965ZM21.675 2.14648H14.15C13.8649 2.14648 13.5915 2.25974 13.3899 2.46134C13.1883 2.66295 13.075 2.93638 13.075 3.22148V10.7465C13.075 11.0316 13.1883 11.305 13.3899 11.5066C13.5915 11.7082 13.8649 11.8215 14.15 11.8215H21.675C21.9601 11.8215 22.2335 11.7082 22.4351 11.5066C22.6367 11.305 22.75 11.0316 22.75 10.7465V3.22148C22.75 2.93638 22.6367 2.66295 22.4351 2.46134C22.2335 2.25974 21.9601 2.14648 21.675 2.14648ZM20.6 9.67148H15.225V4.29648H20.6V9.67148ZM21.675 13.9715H14.15C13.8649 13.9715 13.5915 14.0847 13.3899 14.2863C13.1883 14.4879 13.075 14.7614 13.075 15.0465V22.5715C13.075 22.8566 13.1883 23.13 13.3899 23.3316C13.5915 23.5332 13.8649 23.6465 14.15 23.6465H21.675C21.9601 23.6465 22.2335 23.5332 22.4351 23.3316C22.6367 23.13 22.75 22.8566 22.75 22.5715V15.0465C22.75 14.7614 22.6367 14.4879 22.4351 14.2863C22.2335 14.0847 21.9601 13.9715 21.675 13.9715ZM20.6 21.4965H15.225V16.1215H20.6V21.4965ZM9.85 2.14648H2.325C2.03989 2.14648 1.76646 2.25974 1.56486 2.46134C1.36326 2.66295 1.25 2.93638 1.25 3.22148V10.7465C1.25 11.0316 1.36326 11.305 1.56486 11.5066C1.76646 11.7082 2.03989 11.8215 2.325 11.8215H9.85C10.1351 11.8215 10.4085 11.7082 10.6101 11.5066C10.8117 11.305 10.925 11.0316 10.925 10.7465V3.22148C10.925 2.93638 10.8117 2.66295 10.6101 2.46134C10.4085 2.25974 10.1351 2.14648 9.85 2.14648ZM8.775 9.67148H3.4V4.29648H8.775V9.67148Z" fill="white"/>
</svg>
