<svg width="19" height="14" viewBox="0 0 19 14" fill="none" xmlns="http://www.w3.org/2000/svg">
<path fill-rule="evenodd" clip-rule="evenodd" d="M17.8325 1.82916C18.1152 2.11186 18.3189 2.46368 18.4233 2.84959C19.0246 5.26999 18.8857 9.09266 18.435 11.6065C18.3306 11.9924 18.1268 12.3442 17.8441 12.6269C17.5615 12.9096 17.2096 13.1133 16.8237 13.2177C15.4109 13.603 9.72482 13.603 9.72482 13.603C9.72482 13.603 4.03869 13.603 2.62592 13.2177C2.24 13.1133 1.88818 12.9096 1.60548 12.6269C1.32278 12.3442 1.11908 11.9924 1.01465 11.6065C0.409844 9.19657 0.575641 5.37157 1.00298 2.86127C1.1074 2.47536 1.31111 2.12353 1.59381 1.84083C1.8765 1.55814 2.22833 1.35443 2.61424 1.25001C4.02701 0.8647 9.71314 0.853027 9.71314 0.853027C9.71314 0.853027 15.3993 0.853027 16.812 1.23833C17.198 1.34276 17.5498 1.54646 17.8325 1.82916ZM12.6204 7.22802L7.90339 9.96016V4.49588L12.6204 7.22802Z" fill="white"/>
</svg>
